<svg width="192" height="192" viewBox="0 0 192 192" fill="none" xmlns="http://www.w3.org/2000/svg">
<path d="M11.4 6V7.242C10.344 7.37592 9.36245 7.85706 8.60975 8.60975C7.85706 9.36245 7.37592 10.344 7.242 11.4H6V12.6H7.242C7.37592 13.656 7.85706 14.6376 8.60975 15.3902C9.36245 16.1429 10.344 16.6241 11.4 16.758V18H12.6V16.758C13.656 16.6241 14.6376 16.1429 15.3902 15.3902C16.1429 14.6376 16.6241 13.656 16.758 12.6H18V11.4H16.758C16.6241 10.344 16.1429 9.36245 15.3902 8.60975C14.6376 7.85706 13.656 7.37592 12.6 7.242V6M11.4 8.448V9.6H12.6V8.454C14.1 8.7 15.3 9.9 15.552 11.4H14.4V12.6H15.546C15.3 14.1 14.1 15.3 12.6 15.552V14.4H11.4V15.546C9.9 15.3 8.7 14.1 8.448 12.6H9.6V11.4H8.454C8.7 9.9 9.9 8.7 11.4 8.448ZM12 11.4C11.8409 11.4 11.6883 11.4632 11.5757 11.5757C11.4632 11.6883 11.4 11.8409 11.4 12C11.4 12.1591 11.4632 12.3117 11.5757 12.4243C11.6883 12.5368 11.8409 12.6 12 12.6C12.1591 12.6 12.3117 12.5368 12.4243 12.4243C12.5368 12.3117 12.6 12.1591 12.6 12C12.6 11.8409 12.5368 11.6883 12.4243 11.5757C12.3117 11.4632 12.1591 11.4 12 11.4Z" fill="#283462"/>
<path d="M35.4 6V7.242C34.344 7.37592 33.3624 7.85706 32.6098 8.60975C31.8571 9.36245 31.3759 10.344 31.242 11.4H30V12.6H31.242C31.3759 13.656 31.8571 14.6376 32.6098 15.3902C33.3624 16.1429 34.344 16.6241 35.4 16.758V18H36.6V16.758C37.656 16.6241 38.6376 16.1429 39.3902 15.3902C40.1429 14.6376 40.6241 13.656 40.758 12.6H42V11.4H40.758C40.6241 10.344 40.1429 9.36245 39.3902 8.60975C38.6376 7.85706 37.656 7.37592 36.6 7.242V6M35.4 8.448V9.6H36.6V8.454C38.1 8.7 39.3 9.9 39.552 11.4H38.4V12.6H39.546C39.3 14.1 38.1 15.3 36.6 15.552V14.4H35.4V15.546C33.9 15.3 32.7 14.1 32.448 12.6H33.6V11.4H32.454C32.7 9.9 33.9 8.7 35.4 8.448ZM36 11.4C35.8409 11.4 35.6883 11.4632 35.5757 11.5757C35.4632 11.6883 35.4 11.8409 35.4 12C35.4 12.1591 35.4632 12.3117 35.5757 12.4243C35.6883 12.5368 35.8409 12.6 36 12.6C36.1591 12.6 36.3117 12.5368 36.4243 12.4243C36.5368 12.3117 36.6 12.1591 36.6 12C36.6 11.8409 36.5368 11.6883 36.4243 11.5757C36.3117 11.4632 36.1591 11.4 36 11.4Z" fill="#283462"/>
<path d="M11.4 30V31.242C10.344 31.3759 9.36245 31.8571 8.60975 32.6098C7.85706 33.3624 7.37592 34.344 7.242 35.4H6V36.6H7.242C7.37592 37.656 7.85706 38.6376 8.60975 39.3902C9.36245 40.1429 10.344 40.6241 11.4 40.758V42H12.6V40.758C13.656 40.6241 14.6376 40.1429 15.3902 39.3902C16.1429 38.6376 16.6241 37.656 16.758 36.6H18V35.4H16.758C16.6241 34.344 16.1429 33.3624 15.3902 32.6098C14.6376 31.8571 13.656 31.3759 12.6 31.242V30M11.4 32.448V33.6H12.6V32.454C14.1 32.7 15.3 33.9 15.552 35.4H14.4V36.6H15.546C15.3 38.1 14.1 39.3 12.6 39.552V38.4H11.4V39.546C9.9 39.3 8.7 38.1 8.448 36.6H9.6V35.4H8.454C8.7 33.9 9.9 32.7 11.4 32.448ZM12 35.4C11.8409 35.4 11.6883 35.4632 11.5757 35.5757C11.4632 35.6883 11.4 35.8409 11.4 36C11.4 36.1591 11.4632 36.3117 11.5757 36.4243C11.6883 36.5368 11.8409 36.6 12 36.6C12.1591 36.6 12.3117 36.5368 12.4243 36.4243C12.5368 36.3117 12.6 36.1591 12.6 36C12.6 35.8409 12.5368 35.6883 12.4243 35.5757C12.3117 35.4632 12.1591 35.4 12 35.4Z" fill="#283462"/>
<path d="M35.4 30V31.242C34.344 31.3759 33.3624 31.8571 32.6098 32.6098C31.8571 33.3624 31.3759 34.344 31.242 35.4H30V36.6H31.242C31.3759 37.656 31.8571 38.6376 32.6098 39.3902C33.3624 40.1429 34.344 40.6241 35.4 40.758V42H36.6V40.758C37.656 40.6241 38.6376 40.1429 39.3902 39.3902C40.1429 38.6376 40.6241 37.656 40.758 36.6H42V35.4H40.758C40.6241 34.344 40.1429 33.3624 39.3902 32.6098C38.6376 31.8571 37.656 31.3759 36.6 31.242V30M35.4 32.448V33.6H36.6V32.454C38.1 32.7 39.3 33.9 39.552 35.4H38.4V36.6H39.546C39.3 38.1 38.1 39.3 36.6 39.552V38.4H35.4V39.546C33.9 39.3 32.7 38.1 32.448 36.6H33.6V35.4H32.454C32.7 33.9 33.9 32.7 35.4 32.448ZM36 35.4C35.8409 35.4 35.6883 35.4632 35.5757 35.5757C35.4632 35.6883 35.4 35.8409 35.4 36C35.4 36.1591 35.4632 36.3117 35.5757 36.4243C35.6883 36.5368 35.8409 36.6 36 36.6C36.1591 36.6 36.3117 36.5368 36.4243 36.4243C36.5368 36.3117 36.6 36.1591 36.6 36C36.6 35.8409 36.5368 35.6883 36.4243 35.5757C36.3117 35.4632 36.1591 35.4 36 35.4Z" fill="#283462"/>
<path d="M59.4 6V7.242C58.344 7.37592 57.3624 7.85706 56.6098 8.60975C55.8571 9.36245 55.3759 10.344 55.242 11.4H54V12.6H55.242C55.3759 13.656 55.8571 14.6376 56.6098 15.3902C57.3624 16.1429 58.344 16.6241 59.4 16.758V18H60.6V16.758C61.656 16.6241 62.6376 16.1429 63.3902 15.3902C64.1429 14.6376 64.6241 13.656 64.758 12.6H66V11.4H64.758C64.6241 10.344 64.1429 9.36245 63.3902 8.60975C62.6376 7.85706 61.656 7.37592 60.6 7.242V6M59.4 8.448V9.6H60.6V8.454C62.1 8.7 63.3 9.9 63.552 11.4H62.4V12.6H63.546C63.3 14.1 62.1 15.3 60.6 15.552V14.4H59.4V15.546C57.9 15.3 56.7 14.1 56.448 12.6H57.6V11.4H56.454C56.7 9.9 57.9 8.7 59.4 8.448ZM60 11.4C59.8409 11.4 59.6883 11.4632 59.5757 11.5757C59.4632 11.6883 59.4 11.8409 59.4 12C59.4 12.1591 59.4632 12.3117 59.5757 12.4243C59.6883 12.5368 59.8409 12.6 60 12.6C60.1591 12.6 60.3117 12.5368 60.4243 12.4243C60.5368 12.3117 60.6 12.1591 60.6 12C60.6 11.8409 60.5368 11.6883 60.4243 11.5757C60.3117 11.4632 60.1591 11.4 60 11.4Z" fill="#283462"/>
<path d="M83.4 6V7.242C82.344 7.37592 81.3624 7.85706 80.6098 8.60975C79.8571 9.36245 79.3759 10.344 79.242 11.4H78V12.6H79.242C79.3759 13.656 79.8571 14.6376 80.6098 15.3902C81.3624 16.1429 82.344 16.6241 83.4 16.758V18H84.6V16.758C85.656 16.6241 86.6376 16.1429 87.3902 15.3902C88.1429 14.6376 88.6241 13.656 88.758 12.6H90V11.4H88.758C88.6241 10.344 88.1429 9.36245 87.3902 8.60975C86.6376 7.85706 85.656 7.37592 84.6 7.242V6M83.4 8.448V9.6H84.6V8.454C86.1 8.7 87.3 9.9 87.552 11.4H86.4V12.6H87.546C87.3 14.1 86.1 15.3 84.6 15.552V14.4H83.4V15.546C81.9 15.3 80.7 14.1 80.448 12.6H81.6V11.4H80.454C80.7 9.9 81.9 8.7 83.4 8.448ZM84 11.4C83.8409 11.4 83.6883 11.4632 83.5757 11.5757C83.4632 11.6883 83.4 11.8409 83.4 12C83.4 12.1591 83.4632 12.3117 83.5757 12.4243C83.6883 12.5368 83.8409 12.6 84 12.6C84.1591 12.6 84.3117 12.5368 84.4243 12.4243C84.5368 12.3117 84.6 12.1591 84.6 12C84.6 11.8409 84.5368 11.6883 84.4243 11.5757C84.3117 11.4632 84.1591 11.4 84 11.4Z" fill="#283462"/>
<path d="M59.4 30V31.242C58.344 31.3759 57.3624 31.8571 56.6098 32.6098C55.8571 33.3624 55.3759 34.344 55.242 35.4H54V36.6H55.242C55.3759 37.656 55.8571 38.6376 56.6098 39.3902C57.3624 40.1429 58.344 40.6241 59.4 40.758V42H60.6V40.758C61.656 40.6241 62.6376 40.1429 63.3902 39.3902C64.1429 38.6376 64.6241 37.656 64.758 36.6H66V35.4H64.758C64.6241 34.344 64.1429 33.3624 63.3902 32.6098C62.6376 31.8571 61.656 31.3759 60.6 31.242V30M59.4 32.448V33.6H60.6V32.454C62.1 32.7 63.3 33.9 63.552 35.4H62.4V36.6H63.546C63.3 38.1 62.1 39.3 60.6 39.552V38.4H59.4V39.546C57.9 39.3 56.7 38.1 56.448 36.6H57.6V35.4H56.454C56.7 33.9 57.9 32.7 59.4 32.448ZM60 35.4C59.8409 35.4 59.6883 35.4632 59.5757 35.5757C59.4632 35.6883 59.4 35.8409 59.4 36C59.4 36.1591 59.4632 36.3117 59.5757 36.4243C59.6883 36.5368 59.8409 36.6 60 36.6C60.1591 36.6 60.3117 36.5368 60.4243 36.4243C60.5368 36.3117 60.6 36.1591 60.6 36C60.6 35.8409 60.5368 35.6883 60.4243 35.5757C60.3117 35.4632 60.1591 35.4 60 35.4Z" fill="#283462"/>
<path d="M83.4 30V31.242C82.344 31.3759 81.3624 31.8571 80.6098 32.6098C79.8571 33.3624 79.3759 34.344 79.242 35.4H78V36.6H79.242C79.3759 37.656 79.8571 38.6376 80.6098 39.3902C81.3624 40.1429 82.344 40.6241 83.4 40.758V42H84.6V40.758C85.656 40.6241 86.6376 40.1429 87.3902 39.3902C88.1429 38.6376 88.6241 37.656 88.758 36.6H90V35.4H88.758C88.6241 34.344 88.1429 33.3624 87.3902 32.6098C86.6376 31.8571 85.656 31.3759 84.6 31.242V30M83.4 32.448V33.6H84.6V32.454C86.1 32.7 87.3 33.9 87.552 35.4H86.4V36.6H87.546C87.3 38.1 86.1 39.3 84.6 39.552V38.4H83.4V39.546C81.9 39.3 80.7 38.1 80.448 36.6H81.6V35.4H80.454C80.7 33.9 81.9 32.7 83.4 32.448ZM84 35.4C83.8409 35.4 83.6883 35.4632 83.5757 35.5757C83.4632 35.6883 83.4 35.8409 83.4 36C83.4 36.1591 83.4632 36.3117 83.5757 36.4243C83.6883 36.5368 83.8409 36.6 84 36.6C84.1591 36.6 84.3117 36.5368 84.4243 36.4243C84.5368 36.3117 84.6 36.1591 84.6 36C84.6 35.8409 84.5368 35.6883 84.4243 35.5757C84.3117 35.4632 84.1591 35.4 84 35.4Z" fill="#283462"/>
<path d="M107.4 6V7.242C106.344 7.37592 105.362 7.85706 104.61 8.60975C103.857 9.36245 103.376 10.344 103.242 11.4H102V12.6H103.242C103.376 13.656 103.857 14.6376 104.61 15.3902C105.362 16.1429 106.344 16.6241 107.4 16.758V18H108.6V16.758C109.656 16.6241 110.638 16.1429 111.39 15.3902C112.143 14.6376 112.624 13.656 112.758 12.6H114V11.4H112.758C112.624 10.344 112.143 9.36245 111.39 8.60975C110.638 7.85706 109.656 7.37592 108.6 7.242V6M107.4 8.448V9.6H108.6V8.454C110.1 8.7 111.3 9.9 111.552 11.4H110.4V12.6H111.546C111.3 14.1 110.1 15.3 108.6 15.552V14.4H107.4V15.546C105.9 15.3 104.7 14.1 104.448 12.6H105.6V11.4H104.454C104.7 9.9 105.9 8.7 107.4 8.448ZM108 11.4C107.841 11.4 107.688 11.4632 107.576 11.5757C107.463 11.6883 107.4 11.8409 107.4 12C107.4 12.1591 107.463 12.3117 107.576 12.4243C107.688 12.5368 107.841 12.6 108 12.6C108.159 12.6 108.312 12.5368 108.424 12.4243C108.537 12.3117 108.6 12.1591 108.6 12C108.6 11.8409 108.537 11.6883 108.424 11.5757C108.312 11.4632 108.159 11.4 108 11.4Z" fill="#283462"/>
<path d="M131.4 6V7.242C130.344 7.37592 129.362 7.85706 128.61 8.60975C127.857 9.36245 127.376 10.344 127.242 11.4H126V12.6H127.242C127.376 13.656 127.857 14.6376 128.61 15.3902C129.362 16.1429 130.344 16.6241 131.4 16.758V18H132.6V16.758C133.656 16.6241 134.638 16.1429 135.39 15.3902C136.143 14.6376 136.624 13.656 136.758 12.6H138V11.4H136.758C136.624 10.344 136.143 9.36245 135.39 8.60975C134.638 7.85706 133.656 7.37592 132.6 7.242V6M131.4 8.448V9.6H132.6V8.454C134.1 8.7 135.3 9.9 135.552 11.4H134.4V12.6H135.546C135.3 14.1 134.1 15.3 132.6 15.552V14.4H131.4V15.546C129.9 15.3 128.7 14.1 128.448 12.6H129.6V11.4H128.454C128.7 9.9 129.9 8.7 131.4 8.448ZM132 11.4C131.841 11.4 131.688 11.4632 131.576 11.5757C131.463 11.6883 131.4 11.8409 131.4 12C131.4 12.1591 131.463 12.3117 131.576 12.4243C131.688 12.5368 131.841 12.6 132 12.6C132.159 12.6 132.312 12.5368 132.424 12.4243C132.537 12.3117 132.6 12.1591 132.6 12C132.6 11.8409 132.537 11.6883 132.424 11.5757C132.312 11.4632 132.159 11.4 132 11.4Z" fill="#283462"/>
<path d="M107.4 30V31.242C106.344 31.3759 105.362 31.8571 104.61 32.6098C103.857 33.3624 103.376 34.344 103.242 35.4H102V36.6H103.242C103.376 37.656 103.857 38.6376 104.61 39.3902C105.362 40.1429 106.344 40.6241 107.4 40.758V42H108.6V40.758C109.656 40.6241 110.638 40.1429 111.39 39.3902C112.143 38.6376 112.624 37.656 112.758 36.6H114V35.4H112.758C112.624 34.344 112.143 33.3624 111.39 32.6098C110.638 31.8571 109.656 31.3759 108.6 31.242V30M107.4 32.448V33.6H108.6V32.454C110.1 32.7 111.3 33.9 111.552 35.4H110.4V36.6H111.546C111.3 38.1 110.1 39.3 108.6 39.552V38.4H107.4V39.546C105.9 39.3 104.7 38.1 104.448 36.6H105.6V35.4H104.454C104.7 33.9 105.9 32.7 107.4 32.448ZM108 35.4C107.841 35.4 107.688 35.4632 107.576 35.5757C107.463 35.6883 107.4 35.8409 107.4 36C107.4 36.1591 107.463 36.3117 107.576 36.4243C107.688 36.5368 107.841 36.6 108 36.6C108.159 36.6 108.312 36.5368 108.424 36.4243C108.537 36.3117 108.6 36.1591 108.6 36C108.6 35.8409 108.537 35.6883 108.424 35.5757C108.312 35.4632 108.159 35.4 108 35.4Z" fill="#283462"/>
<path d="M131.4 30V31.242C130.344 31.3759 129.362 31.8571 128.61 32.6098C127.857 33.3624 127.376 34.344 127.242 35.4H126V36.6H127.242C127.376 37.656 127.857 38.6376 128.61 39.3902C129.362 40.1429 130.344 40.6241 131.4 40.758V42H132.6V40.758C133.656 40.6241 134.638 40.1429 135.39 39.3902C136.143 38.6376 136.624 37.656 136.758 36.6H138V35.4H136.758C136.624 34.344 136.143 33.3624 135.39 32.6098C134.638 31.8571 133.656 31.3759 132.6 31.242V30M131.4 32.448V33.6H132.6V32.454C134.1 32.7 135.3 33.9 135.552 35.4H134.4V36.6H135.546C135.3 38.1 134.1 39.3 132.6 39.552V38.4H131.4V39.546C129.9 39.3 128.7 38.1 128.448 36.6H129.6V35.4H128.454C128.7 33.9 129.9 32.7 131.4 32.448ZM132 35.4C131.841 35.4 131.688 35.4632 131.576 35.5757C131.463 35.6883 131.4 35.8409 131.4 36C131.4 36.1591 131.463 36.3117 131.576 36.4243C131.688 36.5368 131.841 36.6 132 36.6C132.159 36.6 132.312 36.5368 132.424 36.4243C132.537 36.3117 132.6 36.1591 132.6 36C132.6 35.8409 132.537 35.6883 132.424 35.5757C132.312 35.4632 132.159 35.4 132 35.4Z" fill="#283462"/>
<path d="M155.4 6V7.242C154.344 7.37592 153.362 7.85706 152.61 8.60975C151.857 9.36245 151.376 10.344 151.242 11.4H150V12.6H151.242C151.376 13.656 151.857 14.6376 152.61 15.3902C153.362 16.1429 154.344 16.6241 155.4 16.758V18H156.6V16.758C157.656 16.6241 158.638 16.1429 159.39 15.3902C160.143 14.6376 160.624 13.656 160.758 12.6H162V11.4H160.758C160.624 10.344 160.143 9.36245 159.39 8.60975C158.638 7.85706 157.656 7.37592 156.6 7.242V6M155.4 8.448V9.6H156.6V8.454C158.1 8.7 159.3 9.9 159.552 11.4H158.4V12.6H159.546C159.3 14.1 158.1 15.3 156.6 15.552V14.4H155.4V15.546C153.9 15.3 152.7 14.1 152.448 12.6H153.6V11.4H152.454C152.7 9.9 153.9 8.7 155.4 8.448ZM156 11.4C155.841 11.4 155.688 11.4632 155.576 11.5757C155.463 11.6883 155.4 11.8409 155.4 12C155.4 12.1591 155.463 12.3117 155.576 12.4243C155.688 12.5368 155.841 12.6 156 12.6C156.159 12.6 156.312 12.5368 156.424 12.4243C156.537 12.3117 156.6 12.1591 156.6 12C156.6 11.8409 156.537 11.6883 156.424 11.5757C156.312 11.4632 156.159 11.4 156 11.4Z" fill="#283462"/>
<path d="M179.4 6V7.242C178.344 7.37592 177.362 7.85706 176.61 8.60975C175.857 9.36245 175.376 10.344 175.242 11.4H174V12.6H175.242C175.376 13.656 175.857 14.6376 176.61 15.3902C177.362 16.1429 178.344 16.6241 179.4 16.758V18H180.6V16.758C181.656 16.6241 182.638 16.1429 183.39 15.3902C184.143 14.6376 184.624 13.656 184.758 12.6H186V11.4H184.758C184.624 10.344 184.143 9.36245 183.39 8.60975C182.638 7.85706 181.656 7.37592 180.6 7.242V6M179.4 8.448V9.6H180.6V8.454C182.1 8.7 183.3 9.9 183.552 11.4H182.4V12.6H183.546C183.3 14.1 182.1 15.3 180.6 15.552V14.4H179.4V15.546C177.9 15.3 176.7 14.1 176.448 12.6H177.6V11.4H176.454C176.7 9.9 177.9 8.7 179.4 8.448ZM180 11.4C179.841 11.4 179.688 11.4632 179.576 11.5757C179.463 11.6883 179.4 11.8409 179.4 12C179.4 12.1591 179.463 12.3117 179.576 12.4243C179.688 12.5368 179.841 12.6 180 12.6C180.159 12.6 180.312 12.5368 180.424 12.4243C180.537 12.3117 180.6 12.1591 180.6 12C180.6 11.8409 180.537 11.6883 180.424 11.5757C180.312 11.4632 180.159 11.4 180 11.4Z" fill="#283462"/>
<path d="M155.4 30V31.242C154.344 31.3759 153.362 31.8571 152.61 32.6098C151.857 33.3624 151.376 34.344 151.242 35.4H150V36.6H151.242C151.376 37.656 151.857 38.6376 152.61 39.3902C153.362 40.1429 154.344 40.6241 155.4 40.758V42H156.6V40.758C157.656 40.6241 158.638 40.1429 159.39 39.3902C160.143 38.6376 160.624 37.656 160.758 36.6H162V35.4H160.758C160.624 34.344 160.143 33.3624 159.39 32.6098C158.638 31.8571 157.656 31.3759 156.6 31.242V30M155.4 32.448V33.6H156.6V32.454C158.1 32.7 159.3 33.9 159.552 35.4H158.4V36.6H159.546C159.3 38.1 158.1 39.3 156.6 39.552V38.4H155.4V39.546C153.9 39.3 152.7 38.1 152.448 36.6H153.6V35.4H152.454C152.7 33.9 153.9 32.7 155.4 32.448ZM156 35.4C155.841 35.4 155.688 35.4632 155.576 35.5757C155.463 35.6883 155.4 35.8409 155.4 36C155.4 36.1591 155.463 36.3117 155.576 36.4243C155.688 36.5368 155.841 36.6 156 36.6C156.159 36.6 156.312 36.5368 156.424 36.4243C156.537 36.3117 156.6 36.1591 156.6 36C156.6 35.8409 156.537 35.6883 156.424 35.5757C156.312 35.4632 156.159 35.4 156 35.4Z" fill="#283462"/>
<path d="M179.4 30V31.242C178.344 31.3759 177.362 31.8571 176.61 32.6098C175.857 33.3624 175.376 34.344 175.242 35.4H174V36.6H175.242C175.376 37.656 175.857 38.6376 176.61 39.3902C177.362 40.1429 178.344 40.6241 179.4 40.758V42H180.6V40.758C181.656 40.6241 182.638 40.1429 183.39 39.3902C184.143 38.6376 184.624 37.656 184.758 36.6H186V35.4H184.758C184.624 34.344 184.143 33.3624 183.39 32.6098C182.638 31.8571 181.656 31.3759 180.6 31.242V30M179.4 32.448V33.6H180.6V32.454C182.1 32.7 183.3 33.9 183.552 35.4H182.4V36.6H183.546C183.3 38.1 182.1 39.3 180.6 39.552V38.4H179.4V39.546C177.9 39.3 176.7 38.1 176.448 36.6H177.6V35.4H176.454C176.7 33.9 177.9 32.7 179.4 32.448ZM180 35.4C179.841 35.4 179.688 35.4632 179.576 35.5757C179.463 35.6883 179.4 35.8409 179.4 36C179.4 36.1591 179.463 36.3117 179.576 36.4243C179.688 36.5368 179.841 36.6 180 36.6C180.159 36.6 180.312 36.5368 180.424 36.4243C180.537 36.3117 180.6 36.1591 180.6 36C180.6 35.8409 180.537 35.6883 180.424 35.5757C180.312 35.4632 180.159 35.4 180 35.4Z" fill="#283462"/>
<path d="M11.4 54V55.242C10.344 55.3759 9.36245 55.8571 8.60975 56.6098C7.85706 57.3624 7.37592 58.344 7.242 59.4H6V60.6H7.242C7.37592 61.656 7.85706 62.6376 8.60975 63.3902C9.36245 64.1429 10.344 64.6241 11.4 64.758V66H12.6V64.758C13.656 64.6241 14.6376 64.1429 15.3902 63.3902C16.1429 62.6376 16.6241 61.656 16.758 60.6H18V59.4H16.758C16.6241 58.344 16.1429 57.3624 15.3902 56.6098C14.6376 55.8571 13.656 55.3759 12.6 55.242V54M11.4 56.448V57.6H12.6V56.454C14.1 56.7 15.3 57.9 15.552 59.4H14.4V60.6H15.546C15.3 62.1 14.1 63.3 12.6 63.552V62.4H11.4V63.546C9.9 63.3 8.7 62.1 8.448 60.6H9.6V59.4H8.454C8.7 57.9 9.9 56.7 11.4 56.448ZM12 59.4C11.8409 59.4 11.6883 59.4632 11.5757 59.5757C11.4632 59.6883 11.4 59.8409 11.4 60C11.4 60.1591 11.4632 60.3117 11.5757 60.4243C11.6883 60.5368 11.8409 60.6 12 60.6C12.1591 60.6 12.3117 60.5368 12.4243 60.4243C12.5368 60.3117 12.6 60.1591 12.6 60C12.6 59.8409 12.5368 59.6883 12.4243 59.5757C12.3117 59.4632 12.1591 59.4 12 59.4Z" fill="#283462"/>
<path d="M35.4 54V55.242C34.344 55.3759 33.3624 55.8571 32.6098 56.6098C31.8571 57.3624 31.3759 58.344 31.242 59.4H30V60.6H31.242C31.3759 61.656 31.8571 62.6376 32.6098 63.3902C33.3624 64.1429 34.344 64.6241 35.4 64.758V66H36.6V64.758C37.656 64.6241 38.6376 64.1429 39.3902 63.3902C40.1429 62.6376 40.6241 61.656 40.758 60.6H42V59.4H40.758C40.6241 58.344 40.1429 57.3624 39.3902 56.6098C38.6376 55.8571 37.656 55.3759 36.6 55.242V54M35.4 56.448V57.6H36.6V56.454C38.1 56.7 39.3 57.9 39.552 59.4H38.4V60.6H39.546C39.3 62.1 38.1 63.3 36.6 63.552V62.4H35.4V63.546C33.9 63.3 32.7 62.1 32.448 60.6H33.6V59.4H32.454C32.7 57.9 33.9 56.7 35.4 56.448ZM36 59.4C35.8409 59.4 35.6883 59.4632 35.5757 59.5757C35.4632 59.6883 35.4 59.8409 35.4 60C35.4 60.1591 35.4632 60.3117 35.5757 60.4243C35.6883 60.5368 35.8409 60.6 36 60.6C36.1591 60.6 36.3117 60.5368 36.4243 60.4243C36.5368 60.3117 36.6 60.1591 36.6 60C36.6 59.8409 36.5368 59.6883 36.4243 59.5757C36.3117 59.4632 36.1591 59.4 36 59.4Z" fill="#283462"/>
<path d="M11.4 78V79.242C10.344 79.3759 9.36245 79.8571 8.60975 80.6098C7.85706 81.3624 7.37592 82.344 7.242 83.4H6V84.6H7.242C7.37592 85.656 7.85706 86.6376 8.60975 87.3902C9.36245 88.1429 10.344 88.6241 11.4 88.758V90H12.6V88.758C13.656 88.6241 14.6376 88.1429 15.3902 87.3902C16.1429 86.6376 16.6241 85.656 16.758 84.6H18V83.4H16.758C16.6241 82.344 16.1429 81.3624 15.3902 80.6098C14.6376 79.8571 13.656 79.3759 12.6 79.242V78M11.4 80.448V81.6H12.6V80.454C14.1 80.7 15.3 81.9 15.552 83.4H14.4V84.6H15.546C15.3 86.1 14.1 87.3 12.6 87.552V86.4H11.4V87.546C9.9 87.3 8.7 86.1 8.448 84.6H9.6V83.4H8.454C8.7 81.9 9.9 80.7 11.4 80.448ZM12 83.4C11.8409 83.4 11.6883 83.4632 11.5757 83.5757C11.4632 83.6883 11.4 83.8409 11.4 84C11.4 84.1591 11.4632 84.3117 11.5757 84.4243C11.6883 84.5368 11.8409 84.6 12 84.6C12.1591 84.6 12.3117 84.5368 12.4243 84.4243C12.5368 84.3117 12.6 84.1591 12.6 84C12.6 83.8409 12.5368 83.6883 12.4243 83.5757C12.3117 83.4632 12.1591 83.4 12 83.4Z" fill="#283462"/>
<path d="M35.4 78V79.242C34.344 79.3759 33.3624 79.8571 32.6098 80.6098C31.8571 81.3624 31.3759 82.344 31.242 83.4H30V84.6H31.242C31.3759 85.656 31.8571 86.6376 32.6098 87.3902C33.3624 88.1429 34.344 88.6241 35.4 88.758V90H36.6V88.758C37.656 88.6241 38.6376 88.1429 39.3902 87.3902C40.1429 86.6376 40.6241 85.656 40.758 84.6H42V83.4H40.758C40.6241 82.344 40.1429 81.3624 39.3902 80.6098C38.6376 79.8571 37.656 79.3759 36.6 79.242V78M35.4 80.448V81.6H36.6V80.454C38.1 80.7 39.3 81.9 39.552 83.4H38.4V84.6H39.546C39.3 86.1 38.1 87.3 36.6 87.552V86.4H35.4V87.546C33.9 87.3 32.7 86.1 32.448 84.6H33.6V83.4H32.454C32.7 81.9 33.9 80.7 35.4 80.448ZM36 83.4C35.8409 83.4 35.6883 83.4632 35.5757 83.5757C35.4632 83.6883 35.4 83.8409 35.4 84C35.4 84.1591 35.4632 84.3117 35.5757 84.4243C35.6883 84.5368 35.8409 84.6 36 84.6C36.1591 84.6 36.3117 84.5368 36.4243 84.4243C36.5368 84.3117 36.6 84.1591 36.6 84C36.6 83.8409 36.5368 83.6883 36.4243 83.5757C36.3117 83.4632 36.1591 83.4 36 83.4Z" fill="#283462"/>
<path d="M11.4 102V103.242C10.344 103.376 9.36245 103.857 8.60975 104.61C7.85706 105.362 7.37592 106.344 7.242 107.4H6V108.6H7.242C7.37592 109.656 7.85706 110.638 8.60975 111.39C9.36245 112.143 10.344 112.624 11.4 112.758V114H12.6V112.758C13.656 112.624 14.6376 112.143 15.3902 111.39C16.1429 110.638 16.6241 109.656 16.758 108.6H18V107.4H16.758C16.6241 106.344 16.1429 105.362 15.3902 104.61C14.6376 103.857 13.656 103.376 12.6 103.242V102M11.4 104.448V105.6H12.6V104.454C14.1 104.7 15.3 105.9 15.552 107.4H14.4V108.6H15.546C15.3 110.1 14.1 111.3 12.6 111.552V110.4H11.4V111.546C9.9 111.3 8.7 110.1 8.448 108.6H9.6V107.4H8.454C8.7 105.9 9.9 104.7 11.4 104.448ZM12 107.4C11.8409 107.4 11.6883 107.463 11.5757 107.576C11.4632 107.688 11.4 107.841 11.4 108C11.4 108.159 11.4632 108.312 11.5757 108.424C11.6883 108.537 11.8409 108.6 12 108.6C12.1591 108.6 12.3117 108.537 12.4243 108.424C12.5368 108.312 12.6 108.159 12.6 108C12.6 107.841 12.5368 107.688 12.4243 107.576C12.3117 107.463 12.1591 107.4 12 107.4Z" fill="#283462"/>
<path d="M35.4 102V103.242C34.344 103.376 33.3624 103.857 32.6098 104.61C31.8571 105.362 31.3759 106.344 31.242 107.4H30V108.6H31.242C31.3759 109.656 31.8571 110.638 32.6098 111.39C33.3624 112.143 34.344 112.624 35.4 112.758V114H36.6V112.758C37.656 112.624 38.6376 112.143 39.3902 111.39C40.1429 110.638 40.6241 109.656 40.758 108.6H42V107.4H40.758C40.6241 106.344 40.1429 105.362 39.3902 104.61C38.6376 103.857 37.656 103.376 36.6 103.242V102M35.4 104.448V105.6H36.6V104.454C38.1 104.7 39.3 105.9 39.552 107.4H38.4V108.6H39.546C39.3 110.1 38.1 111.3 36.6 111.552V110.4H35.4V111.546C33.9 111.3 32.7 110.1 32.448 108.6H33.6V107.4H32.454C32.7 105.9 33.9 104.7 35.4 104.448ZM36 107.4C35.8409 107.4 35.6883 107.463 35.5757 107.576C35.4632 107.688 35.4 107.841 35.4 108C35.4 108.159 35.4632 108.312 35.5757 108.424C35.6883 108.537 35.8409 108.6 36 108.6C36.1591 108.6 36.3117 108.537 36.4243 108.424C36.5368 108.312 36.6 108.159 36.6 108C36.6 107.841 36.5368 107.688 36.4243 107.576C36.3117 107.463 36.1591 107.4 36 107.4Z" fill="#283462"/>
<path d="M11.4 126V127.242C10.344 127.376 9.36245 127.857 8.60975 128.61C7.85706 129.362 7.37592 130.344 7.242 131.4H6V132.6H7.242C7.37592 133.656 7.85706 134.638 8.60975 135.39C9.36245 136.143 10.344 136.624 11.4 136.758V138H12.6V136.758C13.656 136.624 14.6376 136.143 15.3902 135.39C16.1429 134.638 16.6241 133.656 16.758 132.6H18V131.4H16.758C16.6241 130.344 16.1429 129.362 15.3902 128.61C14.6376 127.857 13.656 127.376 12.6 127.242V126M11.4 128.448V129.6H12.6V128.454C14.1 128.7 15.3 129.9 15.552 131.4H14.4V132.6H15.546C15.3 134.1 14.1 135.3 12.6 135.552V134.4H11.4V135.546C9.9 135.3 8.7 134.1 8.448 132.6H9.6V131.4H8.454C8.7 129.9 9.9 128.7 11.4 128.448ZM12 131.4C11.8409 131.4 11.6883 131.463 11.5757 131.576C11.4632 131.688 11.4 131.841 11.4 132C11.4 132.159 11.4632 132.312 11.5757 132.424C11.6883 132.537 11.8409 132.6 12 132.6C12.1591 132.6 12.3117 132.537 12.4243 132.424C12.5368 132.312 12.6 132.159 12.6 132C12.6 131.841 12.5368 131.688 12.4243 131.576C12.3117 131.463 12.1591 131.4 12 131.4Z" fill="#283462"/>
<path d="M35.4 126V127.242C34.344 127.376 33.3624 127.857 32.6098 128.61C31.8571 129.362 31.3759 130.344 31.242 131.4H30V132.6H31.242C31.3759 133.656 31.8571 134.638 32.6098 135.39C33.3624 136.143 34.344 136.624 35.4 136.758V138H36.6V136.758C37.656 136.624 38.6376 136.143 39.3902 135.39C40.1429 134.638 40.6241 133.656 40.758 132.6H42V131.4H40.758C40.6241 130.344 40.1429 129.362 39.3902 128.61C38.6376 127.857 37.656 127.376 36.6 127.242V126M35.4 128.448V129.6H36.6V128.454C38.1 128.7 39.3 129.9 39.552 131.4H38.4V132.6H39.546C39.3 134.1 38.1 135.3 36.6 135.552V134.4H35.4V135.546C33.9 135.3 32.7 134.1 32.448 132.6H33.6V131.4H32.454C32.7 129.9 33.9 128.7 35.4 128.448ZM36 131.4C35.8409 131.4 35.6883 131.463 35.5757 131.576C35.4632 131.688 35.4 131.841 35.4 132C35.4 132.159 35.4632 132.312 35.5757 132.424C35.6883 132.537 35.8409 132.6 36 132.6C36.1591 132.6 36.3117 132.537 36.4243 132.424C36.5368 132.312 36.6 132.159 36.6 132C36.6 131.841 36.5368 131.688 36.4243 131.576C36.3117 131.463 36.1591 131.4 36 131.4Z" fill="#283462"/>
<path d="M11.4 150V151.242C10.344 151.376 9.36245 151.857 8.60975 152.61C7.85706 153.362 7.37592 154.344 7.242 155.4H6V156.6H7.242C7.37592 157.656 7.85706 158.638 8.60975 159.39C9.36245 160.143 10.344 160.624 11.4 160.758V162H12.6V160.758C13.656 160.624 14.6376 160.143 15.3902 159.39C16.1429 158.638 16.6241 157.656 16.758 156.6H18V155.4H16.758C16.6241 154.344 16.1429 153.362 15.3902 152.61C14.6376 151.857 13.656 151.376 12.6 151.242V150M11.4 152.448V153.6H12.6V152.454C14.1 152.7 15.3 153.9 15.552 155.4H14.4V156.6H15.546C15.3 158.1 14.1 159.3 12.6 159.552V158.4H11.4V159.546C9.9 159.3 8.7 158.1 8.448 156.6H9.6V155.4H8.454C8.7 153.9 9.9 152.7 11.4 152.448ZM12 155.4C11.8409 155.4 11.6883 155.463 11.5757 155.576C11.4632 155.688 11.4 155.841 11.4 156C11.4 156.159 11.4632 156.312 11.5757 156.424C11.6883 156.537 11.8409 156.6 12 156.6C12.1591 156.6 12.3117 156.537 12.4243 156.424C12.5368 156.312 12.6 156.159 12.6 156C12.6 155.841 12.5368 155.688 12.4243 155.576C12.3117 155.463 12.1591 155.4 12 155.4Z" fill="#283462"/>
<path d="M35.4 150V151.242C34.344 151.376 33.3624 151.857 32.6098 152.61C31.8571 153.362 31.3759 154.344 31.242 155.4H30V156.6H31.242C31.3759 157.656 31.8571 158.638 32.6098 159.39C33.3624 160.143 34.344 160.624 35.4 160.758V162H36.6V160.758C37.656 160.624 38.6376 160.143 39.3902 159.39C40.1429 158.638 40.6241 157.656 40.758 156.6H42V155.4H40.758C40.6241 154.344 40.1429 153.362 39.3902 152.61C38.6376 151.857 37.656 151.376 36.6 151.242V150M35.4 152.448V153.6H36.6V152.454C38.1 152.7 39.3 153.9 39.552 155.4H38.4V156.6H39.546C39.3 158.1 38.1 159.3 36.6 159.552V158.4H35.4V159.546C33.9 159.3 32.7 158.1 32.448 156.6H33.6V155.4H32.454C32.7 153.9 33.9 152.7 35.4 152.448ZM36 155.4C35.8409 155.4 35.6883 155.463 35.5757 155.576C35.4632 155.688 35.4 155.841 35.4 156C35.4 156.159 35.4632 156.312 35.5757 156.424C35.6883 156.537 35.8409 156.6 36 156.6C36.1591 156.6 36.3117 156.537 36.4243 156.424C36.5368 156.312 36.6 156.159 36.6 156C36.6 155.841 36.5368 155.688 36.4243 155.576C36.3117 155.463 36.1591 155.4 36 155.4Z" fill="#283462"/>
<path d="M11.4 174V175.242C10.344 175.376 9.36245 175.857 8.60975 176.61C7.85706 177.362 7.37592 178.344 7.242 179.4H6V180.6H7.242C7.37592 181.656 7.85706 182.638 8.60975 183.39C9.36245 184.143 10.344 184.624 11.4 184.758V186H12.6V184.758C13.656 184.624 14.6376 184.143 15.3902 183.39C16.1429 182.638 16.6241 181.656 16.758 180.6H18V179.4H16.758C16.6241 178.344 16.1429 177.362 15.3902 176.61C14.6376 175.857 13.656 175.376 12.6 175.242V174M11.4 176.448V177.6H12.6V176.454C14.1 176.7 15.3 177.9 15.552 179.4H14.4V180.6H15.546C15.3 182.1 14.1 183.3 12.6 183.552V182.4H11.4V183.546C9.9 183.3 8.7 182.1 8.448 180.6H9.6V179.4H8.454C8.7 177.9 9.9 176.7 11.4 176.448ZM12 179.4C11.8409 179.4 11.6883 179.463 11.5757 179.576C11.4632 179.688 11.4 179.841 11.4 180C11.4 180.159 11.4632 180.312 11.5757 180.424C11.6883 180.537 11.8409 180.6 12 180.6C12.1591 180.6 12.3117 180.537 12.4243 180.424C12.5368 180.312 12.6 180.159 12.6 180C12.6 179.841 12.5368 179.688 12.4243 179.576C12.3117 179.463 12.1591 179.4 12 179.4Z" fill="#283462"/>
<path d="M35.4 174V175.242C34.344 175.376 33.3624 175.857 32.6098 176.61C31.8571 177.362 31.3759 178.344 31.242 179.4H30V180.6H31.242C31.3759 181.656 31.8571 182.638 32.6098 183.39C33.3624 184.143 34.344 184.624 35.4 184.758V186H36.6V184.758C37.656 184.624 38.6376 184.143 39.3902 183.39C40.1429 182.638 40.6241 181.656 40.758 180.6H42V179.4H40.758C40.6241 178.344 40.1429 177.362 39.3902 176.61C38.6376 175.857 37.656 175.376 36.6 175.242V174M35.4 176.448V177.6H36.6V176.454C38.1 176.7 39.3 177.9 39.552 179.4H38.4V180.6H39.546C39.3 182.1 38.1 183.3 36.6 183.552V182.4H35.4V183.546C33.9 183.3 32.7 182.1 32.448 180.6H33.6V179.4H32.454C32.7 177.9 33.9 176.7 35.4 176.448ZM36 179.4C35.8409 179.4 35.6883 179.463 35.5757 179.576C35.4632 179.688 35.4 179.841 35.4 180C35.4 180.159 35.4632 180.312 35.5757 180.424C35.6883 180.537 35.8409 180.6 36 180.6C36.1591 180.6 36.3117 180.537 36.4243 180.424C36.5368 180.312 36.6 180.159 36.6 180C36.6 179.841 36.5368 179.688 36.4243 179.576C36.3117 179.463 36.1591 179.4 36 179.4Z" fill="#283462"/>
<path d="M59.4 54V55.242C58.344 55.3759 57.3624 55.8571 56.6098 56.6098C55.8571 57.3624 55.3759 58.344 55.242 59.4H54V60.6H55.242C55.3759 61.656 55.8571 62.6376 56.6098 63.3902C57.3624 64.1429 58.344 64.6241 59.4 64.758V66H60.6V64.758C61.656 64.6241 62.6376 64.1429 63.3902 63.3902C64.1429 62.6376 64.6241 61.656 64.758 60.6H66V59.4H64.758C64.6241 58.344 64.1429 57.3624 63.3902 56.6098C62.6376 55.8571 61.656 55.3759 60.6 55.242V54M59.4 56.448V57.6H60.6V56.454C62.1 56.7 63.3 57.9 63.552 59.4H62.4V60.6H63.546C63.3 62.1 62.1 63.3 60.6 63.552V62.4H59.4V63.546C57.9 63.3 56.7 62.1 56.448 60.6H57.6V59.4H56.454C56.7 57.9 57.9 56.7 59.4 56.448ZM60 59.4C59.8409 59.4 59.6883 59.4632 59.5757 59.5757C59.4632 59.6883 59.4 59.8409 59.4 60C59.4 60.1591 59.4632 60.3117 59.5757 60.4243C59.6883 60.5368 59.8409 60.6 60 60.6C60.1591 60.6 60.3117 60.5368 60.4243 60.4243C60.5368 60.3117 60.6 60.1591 60.6 60C60.6 59.8409 60.5368 59.6883 60.4243 59.5757C60.3117 59.4632 60.1591 59.4 60 59.4Z" fill="#283462"/>
<path d="M83.4 54V55.242C82.344 55.3759 81.3624 55.8571 80.6098 56.6098C79.8571 57.3624 79.3759 58.344 79.242 59.4H78V60.6H79.242C79.3759 61.656 79.8571 62.6376 80.6098 63.3902C81.3624 64.1429 82.344 64.6241 83.4 64.758V66H84.6V64.758C85.656 64.6241 86.6376 64.1429 87.3902 63.3902C88.1429 62.6376 88.6241 61.656 88.758 60.6H90V59.4H88.758C88.6241 58.344 88.1429 57.3624 87.3902 56.6098C86.6376 55.8571 85.656 55.3759 84.6 55.242V54M83.4 56.448V57.6H84.6V56.454C86.1 56.7 87.3 57.9 87.552 59.4H86.4V60.6H87.546C87.3 62.1 86.1 63.3 84.6 63.552V62.4H83.4V63.546C81.9 63.3 80.7 62.1 80.448 60.6H81.6V59.4H80.454C80.7 57.9 81.9 56.7 83.4 56.448ZM84 59.4C83.8409 59.4 83.6883 59.4632 83.5757 59.5757C83.4632 59.6883 83.4 59.8409 83.4 60C83.4 60.1591 83.4632 60.3117 83.5757 60.4243C83.6883 60.5368 83.8409 60.6 84 60.6C84.1591 60.6 84.3117 60.5368 84.4243 60.4243C84.5368 60.3117 84.6 60.1591 84.6 60C84.6 59.8409 84.5368 59.6883 84.4243 59.5757C84.3117 59.4632 84.1591 59.4 84 59.4Z" fill="#283462"/>
<path d="M59.4 78V79.242C58.344 79.3759 57.3624 79.8571 56.6098 80.6098C55.8571 81.3624 55.3759 82.344 55.242 83.4H54V84.6H55.242C55.3759 85.656 55.8571 86.6376 56.6098 87.3902C57.3624 88.1429 58.344 88.6241 59.4 88.758V90H60.6V88.758C61.656 88.6241 62.6376 88.1429 63.3902 87.3902C64.1429 86.6376 64.6241 85.656 64.758 84.6H66V83.4H64.758C64.6241 82.344 64.1429 81.3624 63.3902 80.6098C62.6376 79.8571 61.656 79.3759 60.6 79.242V78M59.4 80.448V81.6H60.6V80.454C62.1 80.7 63.3 81.9 63.552 83.4H62.4V84.6H63.546C63.3 86.1 62.1 87.3 60.6 87.552V86.4H59.4V87.546C57.9 87.3 56.7 86.1 56.448 84.6H57.6V83.4H56.454C56.7 81.9 57.9 80.7 59.4 80.448ZM60 83.4C59.8409 83.4 59.6883 83.4632 59.5757 83.5757C59.4632 83.6883 59.4 83.8409 59.4 84C59.4 84.1591 59.4632 84.3117 59.5757 84.4243C59.6883 84.5368 59.8409 84.6 60 84.6C60.1591 84.6 60.3117 84.5368 60.4243 84.4243C60.5368 84.3117 60.6 84.1591 60.6 84C60.6 83.8409 60.5368 83.6883 60.4243 83.5757C60.3117 83.4632 60.1591 83.4 60 83.4Z" fill="#283462"/>
<path d="M83.4 78V79.242C82.344 79.3759 81.3624 79.8571 80.6098 80.6098C79.8571 81.3624 79.3759 82.344 79.242 83.4H78V84.6H79.242C79.3759 85.656 79.8571 86.6376 80.6098 87.3902C81.3624 88.1429 82.344 88.6241 83.4 88.758V90H84.6V88.758C85.656 88.6241 86.6376 88.1429 87.3902 87.3902C88.1429 86.6376 88.6241 85.656 88.758 84.6H90V83.4H88.758C88.6241 82.344 88.1429 81.3624 87.3902 80.6098C86.6376 79.8571 85.656 79.3759 84.6 79.242V78M83.4 80.448V81.6H84.6V80.454C86.1 80.7 87.3 81.9 87.552 83.4H86.4V84.6H87.546C87.3 86.1 86.1 87.3 84.6 87.552V86.4H83.4V87.546C81.9 87.3 80.7 86.1 80.448 84.6H81.6V83.4H80.454C80.7 81.9 81.9 80.7 83.4 80.448ZM84 83.4C83.8409 83.4 83.6883 83.4632 83.5757 83.5757C83.4632 83.6883 83.4 83.8409 83.4 84C83.4 84.1591 83.4632 84.3117 83.5757 84.4243C83.6883 84.5368 83.8409 84.6 84 84.6C84.1591 84.6 84.3117 84.5368 84.4243 84.4243C84.5368 84.3117 84.6 84.1591 84.6 84C84.6 83.8409 84.5368 83.6883 84.4243 83.5757C84.3117 83.4632 84.1591 83.4 84 83.4Z" fill="#283462"/>
<path d="M59.4 102V103.242C58.344 103.376 57.3624 103.857 56.6098 104.61C55.8571 105.362 55.3759 106.344 55.242 107.4H54V108.6H55.242C55.3759 109.656 55.8571 110.638 56.6098 111.39C57.3624 112.143 58.344 112.624 59.4 112.758V114H60.6V112.758C61.656 112.624 62.6376 112.143 63.3902 111.39C64.1429 110.638 64.6241 109.656 64.758 108.6H66V107.4H64.758C64.6241 106.344 64.1429 105.362 63.3902 104.61C62.6376 103.857 61.656 103.376 60.6 103.242V102M59.4 104.448V105.6H60.6V104.454C62.1 104.7 63.3 105.9 63.552 107.4H62.4V108.6H63.546C63.3 110.1 62.1 111.3 60.6 111.552V110.4H59.4V111.546C57.9 111.3 56.7 110.1 56.448 108.6H57.6V107.4H56.454C56.7 105.9 57.9 104.7 59.4 104.448ZM60 107.4C59.8409 107.4 59.6883 107.463 59.5757 107.576C59.4632 107.688 59.4 107.841 59.4 108C59.4 108.159 59.4632 108.312 59.5757 108.424C59.6883 108.537 59.8409 108.6 60 108.6C60.1591 108.6 60.3117 108.537 60.4243 108.424C60.5368 108.312 60.6 108.159 60.6 108C60.6 107.841 60.5368 107.688 60.4243 107.576C60.3117 107.463 60.1591 107.4 60 107.4Z" fill="#283462"/>
<path d="M83.4 102V103.242C82.344 103.376 81.3624 103.857 80.6098 104.61C79.8571 105.362 79.3759 106.344 79.242 107.4H78V108.6H79.242C79.3759 109.656 79.8571 110.638 80.6098 111.39C81.3624 112.143 82.344 112.624 83.4 112.758V114H84.6V112.758C85.656 112.624 86.6376 112.143 87.3902 111.39C88.1429 110.638 88.6241 109.656 88.758 108.6H90V107.4H88.758C88.6241 106.344 88.1429 105.362 87.3902 104.61C86.6376 103.857 85.656 103.376 84.6 103.242V102M83.4 104.448V105.6H84.6V104.454C86.1 104.7 87.3 105.9 87.552 107.4H86.4V108.6H87.546C87.3 110.1 86.1 111.3 84.6 111.552V110.4H83.4V111.546C81.9 111.3 80.7 110.1 80.448 108.6H81.6V107.4H80.454C80.7 105.9 81.9 104.7 83.4 104.448ZM84 107.4C83.8409 107.4 83.6883 107.463 83.5757 107.576C83.4632 107.688 83.4 107.841 83.4 108C83.4 108.159 83.4632 108.312 83.5757 108.424C83.6883 108.537 83.8409 108.6 84 108.6C84.1591 108.6 84.3117 108.537 84.4243 108.424C84.5368 108.312 84.6 108.159 84.6 108C84.6 107.841 84.5368 107.688 84.4243 107.576C84.3117 107.463 84.1591 107.4 84 107.4Z" fill="#283462"/>
<path d="M59.4 126V127.242C58.344 127.376 57.3624 127.857 56.6098 128.61C55.8571 129.362 55.3759 130.344 55.242 131.4H54V132.6H55.242C55.3759 133.656 55.8571 134.638 56.6098 135.39C57.3624 136.143 58.344 136.624 59.4 136.758V138H60.6V136.758C61.656 136.624 62.6376 136.143 63.3902 135.39C64.1429 134.638 64.6241 133.656 64.758 132.6H66V131.4H64.758C64.6241 130.344 64.1429 129.362 63.3902 128.61C62.6376 127.857 61.656 127.376 60.6 127.242V126M59.4 128.448V129.6H60.6V128.454C62.1 128.7 63.3 129.9 63.552 131.4H62.4V132.6H63.546C63.3 134.1 62.1 135.3 60.6 135.552V134.4H59.4V135.546C57.9 135.3 56.7 134.1 56.448 132.6H57.6V131.4H56.454C56.7 129.9 57.9 128.7 59.4 128.448ZM60 131.4C59.8409 131.4 59.6883 131.463 59.5757 131.576C59.4632 131.688 59.4 131.841 59.4 132C59.4 132.159 59.4632 132.312 59.5757 132.424C59.6883 132.537 59.8409 132.6 60 132.6C60.1591 132.6 60.3117 132.537 60.4243 132.424C60.5368 132.312 60.6 132.159 60.6 132C60.6 131.841 60.5368 131.688 60.4243 131.576C60.3117 131.463 60.1591 131.4 60 131.4Z" fill="#283462"/>
<path d="M83.4 126V127.242C82.344 127.376 81.3624 127.857 80.6098 128.61C79.8571 129.362 79.3759 130.344 79.242 131.4H78V132.6H79.242C79.3759 133.656 79.8571 134.638 80.6098 135.39C81.3624 136.143 82.344 136.624 83.4 136.758V138H84.6V136.758C85.656 136.624 86.6376 136.143 87.3902 135.39C88.1429 134.638 88.6241 133.656 88.758 132.6H90V131.4H88.758C88.6241 130.344 88.1429 129.362 87.3902 128.61C86.6376 127.857 85.656 127.376 84.6 127.242V126M83.4 128.448V129.6H84.6V128.454C86.1 128.7 87.3 129.9 87.552 131.4H86.4V132.6H87.546C87.3 134.1 86.1 135.3 84.6 135.552V134.4H83.4V135.546C81.9 135.3 80.7 134.1 80.448 132.6H81.6V131.4H80.454C80.7 129.9 81.9 128.7 83.4 128.448ZM84 131.4C83.8409 131.4 83.6883 131.463 83.5757 131.576C83.4632 131.688 83.4 131.841 83.4 132C83.4 132.159 83.4632 132.312 83.5757 132.424C83.6883 132.537 83.8409 132.6 84 132.6C84.1591 132.6 84.3117 132.537 84.4243 132.424C84.5368 132.312 84.6 132.159 84.6 132C84.6 131.841 84.5368 131.688 84.4243 131.576C84.3117 131.463 84.1591 131.4 84 131.4Z" fill="#283462"/>
<path d="M59.4 150V151.242C58.344 151.376 57.3624 151.857 56.6098 152.61C55.8571 153.362 55.3759 154.344 55.242 155.4H54V156.6H55.242C55.3759 157.656 55.8571 158.638 56.6098 159.39C57.3624 160.143 58.344 160.624 59.4 160.758V162H60.6V160.758C61.656 160.624 62.6376 160.143 63.3902 159.39C64.1429 158.638 64.6241 157.656 64.758 156.6H66V155.4H64.758C64.6241 154.344 64.1429 153.362 63.3902 152.61C62.6376 151.857 61.656 151.376 60.6 151.242V150M59.4 152.448V153.6H60.6V152.454C62.1 152.7 63.3 153.9 63.552 155.4H62.4V156.6H63.546C63.3 158.1 62.1 159.3 60.6 159.552V158.4H59.4V159.546C57.9 159.3 56.7 158.1 56.448 156.6H57.6V155.4H56.454C56.7 153.9 57.9 152.7 59.4 152.448ZM60 155.4C59.8409 155.4 59.6883 155.463 59.5757 155.576C59.4632 155.688 59.4 155.841 59.4 156C59.4 156.159 59.4632 156.312 59.5757 156.424C59.6883 156.537 59.8409 156.6 60 156.6C60.1591 156.6 60.3117 156.537 60.4243 156.424C60.5368 156.312 60.6 156.159 60.6 156C60.6 155.841 60.5368 155.688 60.4243 155.576C60.3117 155.463 60.1591 155.4 60 155.4Z" fill="#283462"/>
<path d="M83.4 150V151.242C82.344 151.376 81.3624 151.857 80.6098 152.61C79.8571 153.362 79.3759 154.344 79.242 155.4H78V156.6H79.242C79.3759 157.656 79.8571 158.638 80.6098 159.39C81.3624 160.143 82.344 160.624 83.4 160.758V162H84.6V160.758C85.656 160.624 86.6376 160.143 87.3902 159.39C88.1429 158.638 88.6241 157.656 88.758 156.6H90V155.4H88.758C88.6241 154.344 88.1429 153.362 87.3902 152.61C86.6376 151.857 85.656 151.376 84.6 151.242V150M83.4 152.448V153.6H84.6V152.454C86.1 152.7 87.3 153.9 87.552 155.4H86.4V156.6H87.546C87.3 158.1 86.1 159.3 84.6 159.552V158.4H83.4V159.546C81.9 159.3 80.7 158.1 80.448 156.6H81.6V155.4H80.454C80.7 153.9 81.9 152.7 83.4 152.448ZM84 155.4C83.8409 155.4 83.6883 155.463 83.5757 155.576C83.4632 155.688 83.4 155.841 83.4 156C83.4 156.159 83.4632 156.312 83.5757 156.424C83.6883 156.537 83.8409 156.6 84 156.6C84.1591 156.6 84.3117 156.537 84.4243 156.424C84.5368 156.312 84.6 156.159 84.6 156C84.6 155.841 84.5368 155.688 84.4243 155.576C84.3117 155.463 84.1591 155.4 84 155.4Z" fill="#283462"/>
<path d="M59.4 174V175.242C58.344 175.376 57.3624 175.857 56.6098 176.61C55.8571 177.362 55.3759 178.344 55.242 179.4H54V180.6H55.242C55.3759 181.656 55.8571 182.638 56.6098 183.39C57.3624 184.143 58.344 184.624 59.4 184.758V186H60.6V184.758C61.656 184.624 62.6376 184.143 63.3902 183.39C64.1429 182.638 64.6241 181.656 64.758 180.6H66V179.4H64.758C64.6241 178.344 64.1429 177.362 63.3902 176.61C62.6376 175.857 61.656 175.376 60.6 175.242V174M59.4 176.448V177.6H60.6V176.454C62.1 176.7 63.3 177.9 63.552 179.4H62.4V180.6H63.546C63.3 182.1 62.1 183.3 60.6 183.552V182.4H59.4V183.546C57.9 183.3 56.7 182.1 56.448 180.6H57.6V179.4H56.454C56.7 177.9 57.9 176.7 59.4 176.448ZM60 179.4C59.8409 179.4 59.6883 179.463 59.5757 179.576C59.4632 179.688 59.4 179.841 59.4 180C59.4 180.159 59.4632 180.312 59.5757 180.424C59.6883 180.537 59.8409 180.6 60 180.6C60.1591 180.6 60.3117 180.537 60.4243 180.424C60.5368 180.312 60.6 180.159 60.6 180C60.6 179.841 60.5368 179.688 60.4243 179.576C60.3117 179.463 60.1591 179.4 60 179.4Z" fill="#283462"/>
<path d="M83.4 174V175.242C82.344 175.376 81.3624 175.857 80.6098 176.61C79.8571 177.362 79.3759 178.344 79.242 179.4H78V180.6H79.242C79.3759 181.656 79.8571 182.638 80.6098 183.39C81.3624 184.143 82.344 184.624 83.4 184.758V186H84.6V184.758C85.656 184.624 86.6376 184.143 87.3902 183.39C88.1429 182.638 88.6241 181.656 88.758 180.6H90V179.4H88.758C88.6241 178.344 88.1429 177.362 87.3902 176.61C86.6376 175.857 85.656 175.376 84.6 175.242V174M83.4 176.448V177.6H84.6V176.454C86.1 176.7 87.3 177.9 87.552 179.4H86.4V180.6H87.546C87.3 182.1 86.1 183.3 84.6 183.552V182.4H83.4V183.546C81.9 183.3 80.7 182.1 80.448 180.6H81.6V179.4H80.454C80.7 177.9 81.9 176.7 83.4 176.448ZM84 179.4C83.8409 179.4 83.6883 179.463 83.5757 179.576C83.4632 179.688 83.4 179.841 83.4 180C83.4 180.159 83.4632 180.312 83.5757 180.424C83.6883 180.537 83.8409 180.6 84 180.6C84.1591 180.6 84.3117 180.537 84.4243 180.424C84.5368 180.312 84.6 180.159 84.6 180C84.6 179.841 84.5368 179.688 84.4243 179.576C84.3117 179.463 84.1591 179.4 84 179.4Z" fill="#283462"/>
<path d="M107.4 54V55.242C106.344 55.3759 105.362 55.8571 104.61 56.6098C103.857 57.3624 103.376 58.344 103.242 59.4H102V60.6H103.242C103.376 61.656 103.857 62.6376 104.61 63.3902C105.362 64.1429 106.344 64.6241 107.4 64.758V66H108.6V64.758C109.656 64.6241 110.638 64.1429 111.39 63.3902C112.143 62.6376 112.624 61.656 112.758 60.6H114V59.4H112.758C112.624 58.344 112.143 57.3624 111.39 56.6098C110.638 55.8571 109.656 55.3759 108.6 55.242V54M107.4 56.448V57.6H108.6V56.454C110.1 56.7 111.3 57.9 111.552 59.4H110.4V60.6H111.546C111.3 62.1 110.1 63.3 108.6 63.552V62.4H107.4V63.546C105.9 63.3 104.7 62.1 104.448 60.6H105.6V59.4H104.454C104.7 57.9 105.9 56.7 107.4 56.448ZM108 59.4C107.841 59.4 107.688 59.4632 107.576 59.5757C107.463 59.6883 107.4 59.8409 107.4 60C107.4 60.1591 107.463 60.3117 107.576 60.4243C107.688 60.5368 107.841 60.6 108 60.6C108.159 60.6 108.312 60.5368 108.424 60.4243C108.537 60.3117 108.6 60.1591 108.6 60C108.6 59.8409 108.537 59.6883 108.424 59.5757C108.312 59.4632 108.159 59.4 108 59.4Z" fill="#283462"/>
<path d="M131.4 54V55.242C130.344 55.3759 129.362 55.8571 128.61 56.6098C127.857 57.3624 127.376 58.344 127.242 59.4H126V60.6H127.242C127.376 61.656 127.857 62.6376 128.61 63.3902C129.362 64.1429 130.344 64.6241 131.4 64.758V66H132.6V64.758C133.656 64.6241 134.638 64.1429 135.39 63.3902C136.143 62.6376 136.624 61.656 136.758 60.6H138V59.4H136.758C136.624 58.344 136.143 57.3624 135.39 56.6098C134.638 55.8571 133.656 55.3759 132.6 55.242V54M131.4 56.448V57.6H132.6V56.454C134.1 56.7 135.3 57.9 135.552 59.4H134.4V60.6H135.546C135.3 62.1 134.1 63.3 132.6 63.552V62.4H131.4V63.546C129.9 63.3 128.7 62.1 128.448 60.6H129.6V59.4H128.454C128.7 57.9 129.9 56.7 131.4 56.448ZM132 59.4C131.841 59.4 131.688 59.4632 131.576 59.5757C131.463 59.6883 131.4 59.8409 131.4 60C131.4 60.1591 131.463 60.3117 131.576 60.4243C131.688 60.5368 131.841 60.6 132 60.6C132.159 60.6 132.312 60.5368 132.424 60.4243C132.537 60.3117 132.6 60.1591 132.6 60C132.6 59.8409 132.537 59.6883 132.424 59.5757C132.312 59.4632 132.159 59.4 132 59.4Z" fill="#283462"/>
<path d="M107.4 78V79.242C106.344 79.3759 105.362 79.8571 104.61 80.6098C103.857 81.3624 103.376 82.344 103.242 83.4H102V84.6H103.242C103.376 85.656 103.857 86.6376 104.61 87.3902C105.362 88.1429 106.344 88.6241 107.4 88.758V90H108.6V88.758C109.656 88.6241 110.638 88.1429 111.39 87.3902C112.143 86.6376 112.624 85.656 112.758 84.6H114V83.4H112.758C112.624 82.344 112.143 81.3624 111.39 80.6098C110.638 79.8571 109.656 79.3759 108.6 79.242V78M107.4 80.448V81.6H108.6V80.454C110.1 80.7 111.3 81.9 111.552 83.4H110.4V84.6H111.546C111.3 86.1 110.1 87.3 108.6 87.552V86.4H107.4V87.546C105.9 87.3 104.7 86.1 104.448 84.6H105.6V83.4H104.454C104.7 81.9 105.9 80.7 107.4 80.448ZM108 83.4C107.841 83.4 107.688 83.4632 107.576 83.5757C107.463 83.6883 107.4 83.8409 107.4 84C107.4 84.1591 107.463 84.3117 107.576 84.4243C107.688 84.5368 107.841 84.6 108 84.6C108.159 84.6 108.312 84.5368 108.424 84.4243C108.537 84.3117 108.6 84.1591 108.6 84C108.6 83.8409 108.537 83.6883 108.424 83.5757C108.312 83.4632 108.159 83.4 108 83.4Z" fill="#283462"/>
<path d="M131.4 78V79.242C130.344 79.3759 129.362 79.8571 128.61 80.6098C127.857 81.3624 127.376 82.344 127.242 83.4H126V84.6H127.242C127.376 85.656 127.857 86.6376 128.61 87.3902C129.362 88.1429 130.344 88.6241 131.4 88.758V90H132.6V88.758C133.656 88.6241 134.638 88.1429 135.39 87.3902C136.143 86.6376 136.624 85.656 136.758 84.6H138V83.4H136.758C136.624 82.344 136.143 81.3624 135.39 80.6098C134.638 79.8571 133.656 79.3759 132.6 79.242V78M131.4 80.448V81.6H132.6V80.454C134.1 80.7 135.3 81.9 135.552 83.4H134.4V84.6H135.546C135.3 86.1 134.1 87.3 132.6 87.552V86.4H131.4V87.546C129.9 87.3 128.7 86.1 128.448 84.6H129.6V83.4H128.454C128.7 81.9 129.9 80.7 131.4 80.448ZM132 83.4C131.841 83.4 131.688 83.4632 131.576 83.5757C131.463 83.6883 131.4 83.8409 131.4 84C131.4 84.1591 131.463 84.3117 131.576 84.4243C131.688 84.5368 131.841 84.6 132 84.6C132.159 84.6 132.312 84.5368 132.424 84.4243C132.537 84.3117 132.6 84.1591 132.6 84C132.6 83.8409 132.537 83.6883 132.424 83.5757C132.312 83.4632 132.159 83.4 132 83.4Z" fill="#283462"/>
<path d="M107.4 102V103.242C106.344 103.376 105.362 103.857 104.61 104.61C103.857 105.362 103.376 106.344 103.242 107.4H102V108.6H103.242C103.376 109.656 103.857 110.638 104.61 111.39C105.362 112.143 106.344 112.624 107.4 112.758V114H108.6V112.758C109.656 112.624 110.638 112.143 111.39 111.39C112.143 110.638 112.624 109.656 112.758 108.6H114V107.4H112.758C112.624 106.344 112.143 105.362 111.39 104.61C110.638 103.857 109.656 103.376 108.6 103.242V102M107.4 104.448V105.6H108.6V104.454C110.1 104.7 111.3 105.9 111.552 107.4H110.4V108.6H111.546C111.3 110.1 110.1 111.3 108.6 111.552V110.4H107.4V111.546C105.9 111.3 104.7 110.1 104.448 108.6H105.6V107.4H104.454C104.7 105.9 105.9 104.7 107.4 104.448ZM108 107.4C107.841 107.4 107.688 107.463 107.576 107.576C107.463 107.688 107.4 107.841 107.4 108C107.4 108.159 107.463 108.312 107.576 108.424C107.688 108.537 107.841 108.6 108 108.6C108.159 108.6 108.312 108.537 108.424 108.424C108.537 108.312 108.6 108.159 108.6 108C108.6 107.841 108.537 107.688 108.424 107.576C108.312 107.463 108.159 107.4 108 107.4Z" fill="#283462"/>
<path d="M131.4 102V103.242C130.344 103.376 129.362 103.857 128.61 104.61C127.857 105.362 127.376 106.344 127.242 107.4H126V108.6H127.242C127.376 109.656 127.857 110.638 128.61 111.39C129.362 112.143 130.344 112.624 131.4 112.758V114H132.6V112.758C133.656 112.624 134.638 112.143 135.39 111.39C136.143 110.638 136.624 109.656 136.758 108.6H138V107.4H136.758C136.624 106.344 136.143 105.362 135.39 104.61C134.638 103.857 133.656 103.376 132.6 103.242V102M131.4 104.448V105.6H132.6V104.454C134.1 104.7 135.3 105.9 135.552 107.4H134.4V108.6H135.546C135.3 110.1 134.1 111.3 132.6 111.552V110.4H131.4V111.546C129.9 111.3 128.7 110.1 128.448 108.6H129.6V107.4H128.454C128.7 105.9 129.9 104.7 131.4 104.448ZM132 107.4C131.841 107.4 131.688 107.463 131.576 107.576C131.463 107.688 131.4 107.841 131.4 108C131.4 108.159 131.463 108.312 131.576 108.424C131.688 108.537 131.841 108.6 132 108.6C132.159 108.6 132.312 108.537 132.424 108.424C132.537 108.312 132.6 108.159 132.6 108C132.6 107.841 132.537 107.688 132.424 107.576C132.312 107.463 132.159 107.4 132 107.4Z" fill="#283462"/>
<path d="M107.4 126V127.242C106.344 127.376 105.362 127.857 104.61 128.61C103.857 129.362 103.376 130.344 103.242 131.4H102V132.6H103.242C103.376 133.656 103.857 134.638 104.61 135.39C105.362 136.143 106.344 136.624 107.4 136.758V138H108.6V136.758C109.656 136.624 110.638 136.143 111.39 135.39C112.143 134.638 112.624 133.656 112.758 132.6H114V131.4H112.758C112.624 130.344 112.143 129.362 111.39 128.61C110.638 127.857 109.656 127.376 108.6 127.242V126M107.4 128.448V129.6H108.6V128.454C110.1 128.7 111.3 129.9 111.552 131.4H110.4V132.6H111.546C111.3 134.1 110.1 135.3 108.6 135.552V134.4H107.4V135.546C105.9 135.3 104.7 134.1 104.448 132.6H105.6V131.4H104.454C104.7 129.9 105.9 128.7 107.4 128.448ZM108 131.4C107.841 131.4 107.688 131.463 107.576 131.576C107.463 131.688 107.4 131.841 107.4 132C107.4 132.159 107.463 132.312 107.576 132.424C107.688 132.537 107.841 132.6 108 132.6C108.159 132.6 108.312 132.537 108.424 132.424C108.537 132.312 108.6 132.159 108.6 132C108.6 131.841 108.537 131.688 108.424 131.576C108.312 131.463 108.159 131.4 108 131.4Z" fill="#283462"/>
<path d="M131.4 126V127.242C130.344 127.376 129.362 127.857 128.61 128.61C127.857 129.362 127.376 130.344 127.242 131.4H126V132.6H127.242C127.376 133.656 127.857 134.638 128.61 135.39C129.362 136.143 130.344 136.624 131.4 136.758V138H132.6V136.758C133.656 136.624 134.638 136.143 135.39 135.39C136.143 134.638 136.624 133.656 136.758 132.6H138V131.4H136.758C136.624 130.344 136.143 129.362 135.39 128.61C134.638 127.857 133.656 127.376 132.6 127.242V126M131.4 128.448V129.6H132.6V128.454C134.1 128.7 135.3 129.9 135.552 131.4H134.4V132.6H135.546C135.3 134.1 134.1 135.3 132.6 135.552V134.4H131.4V135.546C129.9 135.3 128.7 134.1 128.448 132.6H129.6V131.4H128.454C128.7 129.9 129.9 128.7 131.4 128.448ZM132 131.4C131.841 131.4 131.688 131.463 131.576 131.576C131.463 131.688 131.4 131.841 131.4 132C131.4 132.159 131.463 132.312 131.576 132.424C131.688 132.537 131.841 132.6 132 132.6C132.159 132.6 132.312 132.537 132.424 132.424C132.537 132.312 132.6 132.159 132.6 132C132.6 131.841 132.537 131.688 132.424 131.576C132.312 131.463 132.159 131.4 132 131.4Z" fill="#283462"/>
<path d="M107.4 150V151.242C106.344 151.376 105.362 151.857 104.61 152.61C103.857 153.362 103.376 154.344 103.242 155.4H102V156.6H103.242C103.376 157.656 103.857 158.638 104.61 159.39C105.362 160.143 106.344 160.624 107.4 160.758V162H108.6V160.758C109.656 160.624 110.638 160.143 111.39 159.39C112.143 158.638 112.624 157.656 112.758 156.6H114V155.4H112.758C112.624 154.344 112.143 153.362 111.39 152.61C110.638 151.857 109.656 151.376 108.6 151.242V150M107.4 152.448V153.6H108.6V152.454C110.1 152.7 111.3 153.9 111.552 155.4H110.4V156.6H111.546C111.3 158.1 110.1 159.3 108.6 159.552V158.4H107.4V159.546C105.9 159.3 104.7 158.1 104.448 156.6H105.6V155.4H104.454C104.7 153.9 105.9 152.7 107.4 152.448ZM108 155.4C107.841 155.4 107.688 155.463 107.576 155.576C107.463 155.688 107.4 155.841 107.4 156C107.4 156.159 107.463 156.312 107.576 156.424C107.688 156.537 107.841 156.6 108 156.6C108.159 156.6 108.312 156.537 108.424 156.424C108.537 156.312 108.6 156.159 108.6 156C108.6 155.841 108.537 155.688 108.424 155.576C108.312 155.463 108.159 155.4 108 155.4Z" fill="#283462"/>
<path d="M131.4 150V151.242C130.344 151.376 129.362 151.857 128.61 152.61C127.857 153.362 127.376 154.344 127.242 155.4H126V156.6H127.242C127.376 157.656 127.857 158.638 128.61 159.39C129.362 160.143 130.344 160.624 131.4 160.758V162H132.6V160.758C133.656 160.624 134.638 160.143 135.39 159.39C136.143 158.638 136.624 157.656 136.758 156.6H138V155.4H136.758C136.624 154.344 136.143 153.362 135.39 152.61C134.638 151.857 133.656 151.376 132.6 151.242V150M131.4 152.448V153.6H132.6V152.454C134.1 152.7 135.3 153.9 135.552 155.4H134.4V156.6H135.546C135.3 158.1 134.1 159.3 132.6 159.552V158.4H131.4V159.546C129.9 159.3 128.7 158.1 128.448 156.6H129.6V155.4H128.454C128.7 153.9 129.9 152.7 131.4 152.448ZM132 155.4C131.841 155.4 131.688 155.463 131.576 155.576C131.463 155.688 131.4 155.841 131.4 156C131.4 156.159 131.463 156.312 131.576 156.424C131.688 156.537 131.841 156.6 132 156.6C132.159 156.6 132.312 156.537 132.424 156.424C132.537 156.312 132.6 156.159 132.6 156C132.6 155.841 132.537 155.688 132.424 155.576C132.312 155.463 132.159 155.4 132 155.4Z" fill="#283462"/>
<path d="M107.4 174V175.242C106.344 175.376 105.362 175.857 104.61 176.61C103.857 177.362 103.376 178.344 103.242 179.4H102V180.6H103.242C103.376 181.656 103.857 182.638 104.61 183.39C105.362 184.143 106.344 184.624 107.4 184.758V186H108.6V184.758C109.656 184.624 110.638 184.143 111.39 183.39C112.143 182.638 112.624 181.656 112.758 180.6H114V179.4H112.758C112.624 178.344 112.143 177.362 111.39 176.61C110.638 175.857 109.656 175.376 108.6 175.242V174M107.4 176.448V177.6H108.6V176.454C110.1 176.7 111.3 177.9 111.552 179.4H110.4V180.6H111.546C111.3 182.1 110.1 183.3 108.6 183.552V182.4H107.4V183.546C105.9 183.3 104.7 182.1 104.448 180.6H105.6V179.4H104.454C104.7 177.9 105.9 176.7 107.4 176.448ZM108 179.4C107.841 179.4 107.688 179.463 107.576 179.576C107.463 179.688 107.4 179.841 107.4 180C107.4 180.159 107.463 180.312 107.576 180.424C107.688 180.537 107.841 180.6 108 180.6C108.159 180.6 108.312 180.537 108.424 180.424C108.537 180.312 108.6 180.159 108.6 180C108.6 179.841 108.537 179.688 108.424 179.576C108.312 179.463 108.159 179.4 108 179.4Z" fill="#283462"/>
<path d="M131.4 174V175.242C130.344 175.376 129.362 175.857 128.61 176.61C127.857 177.362 127.376 178.344 127.242 179.4H126V180.6H127.242C127.376 181.656 127.857 182.638 128.61 183.39C129.362 184.143 130.344 184.624 131.4 184.758V186H132.6V184.758C133.656 184.624 134.638 184.143 135.39 183.39C136.143 182.638 136.624 181.656 136.758 180.6H138V179.4H136.758C136.624 178.344 136.143 177.362 135.39 176.61C134.638 175.857 133.656 175.376 132.6 175.242V174M131.4 176.448V177.6H132.6V176.454C134.1 176.7 135.3 177.9 135.552 179.4H134.4V180.6H135.546C135.3 182.1 134.1 183.3 132.6 183.552V182.4H131.4V183.546C129.9 183.3 128.7 182.1 128.448 180.6H129.6V179.4H128.454C128.7 177.9 129.9 176.7 131.4 176.448ZM132 179.4C131.841 179.4 131.688 179.463 131.576 179.576C131.463 179.688 131.4 179.841 131.4 180C131.4 180.159 131.463 180.312 131.576 180.424C131.688 180.537 131.841 180.6 132 180.6C132.159 180.6 132.312 180.537 132.424 180.424C132.537 180.312 132.6 180.159 132.6 180C132.6 179.841 132.537 179.688 132.424 179.576C132.312 179.463 132.159 179.4 132 179.4Z" fill="#283462"/>
<path d="M155.4 54V55.242C154.344 55.3759 153.362 55.8571 152.61 56.6098C151.857 57.3624 151.376 58.344 151.242 59.4H150V60.6H151.242C151.376 61.656 151.857 62.6376 152.61 63.3902C153.362 64.1429 154.344 64.6241 155.4 64.758V66H156.6V64.758C157.656 64.6241 158.638 64.1429 159.39 63.3902C160.143 62.6376 160.624 61.656 160.758 60.6H162V59.4H160.758C160.624 58.344 160.143 57.3624 159.39 56.6098C158.638 55.8571 157.656 55.3759 156.6 55.242V54M155.4 56.448V57.6H156.6V56.454C158.1 56.7 159.3 57.9 159.552 59.4H158.4V60.6H159.546C159.3 62.1 158.1 63.3 156.6 63.552V62.4H155.4V63.546C153.9 63.3 152.7 62.1 152.448 60.6H153.6V59.4H152.454C152.7 57.9 153.9 56.7 155.4 56.448ZM156 59.4C155.841 59.4 155.688 59.4632 155.576 59.5757C155.463 59.6883 155.4 59.8409 155.4 60C155.4 60.1591 155.463 60.3117 155.576 60.4243C155.688 60.5368 155.841 60.6 156 60.6C156.159 60.6 156.312 60.5368 156.424 60.4243C156.537 60.3117 156.6 60.1591 156.6 60C156.6 59.8409 156.537 59.6883 156.424 59.5757C156.312 59.4632 156.159 59.4 156 59.4Z" fill="#283462"/>
<path d="M179.4 54V55.242C178.344 55.3759 177.362 55.8571 176.61 56.6098C175.857 57.3624 175.376 58.344 175.242 59.4H174V60.6H175.242C175.376 61.656 175.857 62.6376 176.61 63.3902C177.362 64.1429 178.344 64.6241 179.4 64.758V66H180.6V64.758C181.656 64.6241 182.638 64.1429 183.39 63.3902C184.143 62.6376 184.624 61.656 184.758 60.6H186V59.4H184.758C184.624 58.344 184.143 57.3624 183.39 56.6098C182.638 55.8571 181.656 55.3759 180.6 55.242V54M179.4 56.448V57.6H180.6V56.454C182.1 56.7 183.3 57.9 183.552 59.4H182.4V60.6H183.546C183.3 62.1 182.1 63.3 180.6 63.552V62.4H179.4V63.546C177.9 63.3 176.7 62.1 176.448 60.6H177.6V59.4H176.454C176.7 57.9 177.9 56.7 179.4 56.448ZM180 59.4C179.841 59.4 179.688 59.4632 179.576 59.5757C179.463 59.6883 179.4 59.8409 179.4 60C179.4 60.1591 179.463 60.3117 179.576 60.4243C179.688 60.5368 179.841 60.6 180 60.6C180.159 60.6 180.312 60.5368 180.424 60.4243C180.537 60.3117 180.6 60.1591 180.6 60C180.6 59.8409 180.537 59.6883 180.424 59.5757C180.312 59.4632 180.159 59.4 180 59.4Z" fill="#283462"/>
<path d="M155.4 78V79.242C154.344 79.3759 153.362 79.8571 152.61 80.6098C151.857 81.3624 151.376 82.344 151.242 83.4H150V84.6H151.242C151.376 85.656 151.857 86.6376 152.61 87.3902C153.362 88.1429 154.344 88.6241 155.4 88.758V90H156.6V88.758C157.656 88.6241 158.638 88.1429 159.39 87.3902C160.143 86.6376 160.624 85.656 160.758 84.6H162V83.4H160.758C160.624 82.344 160.143 81.3624 159.39 80.6098C158.638 79.8571 157.656 79.3759 156.6 79.242V78M155.4 80.448V81.6H156.6V80.454C158.1 80.7 159.3 81.9 159.552 83.4H158.4V84.6H159.546C159.3 86.1 158.1 87.3 156.6 87.552V86.4H155.4V87.546C153.9 87.3 152.7 86.1 152.448 84.6H153.6V83.4H152.454C152.7 81.9 153.9 80.7 155.4 80.448ZM156 83.4C155.841 83.4 155.688 83.4632 155.576 83.5757C155.463 83.6883 155.4 83.8409 155.4 84C155.4 84.1591 155.463 84.3117 155.576 84.4243C155.688 84.5368 155.841 84.6 156 84.6C156.159 84.6 156.312 84.5368 156.424 84.4243C156.537 84.3117 156.6 84.1591 156.6 84C156.6 83.8409 156.537 83.6883 156.424 83.5757C156.312 83.4632 156.159 83.4 156 83.4Z" fill="#283462"/>
<path d="M179.4 78V79.242C178.344 79.3759 177.362 79.8571 176.61 80.6098C175.857 81.3624 175.376 82.344 175.242 83.4H174V84.6H175.242C175.376 85.656 175.857 86.6376 176.61 87.3902C177.362 88.1429 178.344 88.6241 179.4 88.758V90H180.6V88.758C181.656 88.6241 182.638 88.1429 183.39 87.3902C184.143 86.6376 184.624 85.656 184.758 84.6H186V83.4H184.758C184.624 82.344 184.143 81.3624 183.39 80.6098C182.638 79.8571 181.656 79.3759 180.6 79.242V78M179.4 80.448V81.6H180.6V80.454C182.1 80.7 183.3 81.9 183.552 83.4H182.4V84.6H183.546C183.3 86.1 182.1 87.3 180.6 87.552V86.4H179.4V87.546C177.9 87.3 176.7 86.1 176.448 84.6H177.6V83.4H176.454C176.7 81.9 177.9 80.7 179.4 80.448ZM180 83.4C179.841 83.4 179.688 83.4632 179.576 83.5757C179.463 83.6883 179.4 83.8409 179.4 84C179.4 84.1591 179.463 84.3117 179.576 84.4243C179.688 84.5368 179.841 84.6 180 84.6C180.159 84.6 180.312 84.5368 180.424 84.4243C180.537 84.3117 180.6 84.1591 180.6 84C180.6 83.8409 180.537 83.6883 180.424 83.5757C180.312 83.4632 180.159 83.4 180 83.4Z" fill="#283462"/>
<path d="M155.4 102V103.242C154.344 103.376 153.362 103.857 152.61 104.61C151.857 105.362 151.376 106.344 151.242 107.4H150V108.6H151.242C151.376 109.656 151.857 110.638 152.61 111.39C153.362 112.143 154.344 112.624 155.4 112.758V114H156.6V112.758C157.656 112.624 158.638 112.143 159.39 111.39C160.143 110.638 160.624 109.656 160.758 108.6H162V107.4H160.758C160.624 106.344 160.143 105.362 159.39 104.61C158.638 103.857 157.656 103.376 156.6 103.242V102M155.4 104.448V105.6H156.6V104.454C158.1 104.7 159.3 105.9 159.552 107.4H158.4V108.6H159.546C159.3 110.1 158.1 111.3 156.6 111.552V110.4H155.4V111.546C153.9 111.3 152.7 110.1 152.448 108.6H153.6V107.4H152.454C152.7 105.9 153.9 104.7 155.4 104.448ZM156 107.4C155.841 107.4 155.688 107.463 155.576 107.576C155.463 107.688 155.4 107.841 155.4 108C155.4 108.159 155.463 108.312 155.576 108.424C155.688 108.537 155.841 108.6 156 108.6C156.159 108.6 156.312 108.537 156.424 108.424C156.537 108.312 156.6 108.159 156.6 108C156.6 107.841 156.537 107.688 156.424 107.576C156.312 107.463 156.159 107.4 156 107.4Z" fill="#283462"/>
<path d="M179.4 102V103.242C178.344 103.376 177.362 103.857 176.61 104.61C175.857 105.362 175.376 106.344 175.242 107.4H174V108.6H175.242C175.376 109.656 175.857 110.638 176.61 111.39C177.362 112.143 178.344 112.624 179.4 112.758V114H180.6V112.758C181.656 112.624 182.638 112.143 183.39 111.39C184.143 110.638 184.624 109.656 184.758 108.6H186V107.4H184.758C184.624 106.344 184.143 105.362 183.39 104.61C182.638 103.857 181.656 103.376 180.6 103.242V102M179.4 104.448V105.6H180.6V104.454C182.1 104.7 183.3 105.9 183.552 107.4H182.4V108.6H183.546C183.3 110.1 182.1 111.3 180.6 111.552V110.4H179.4V111.546C177.9 111.3 176.7 110.1 176.448 108.6H177.6V107.4H176.454C176.7 105.9 177.9 104.7 179.4 104.448ZM180 107.4C179.841 107.4 179.688 107.463 179.576 107.576C179.463 107.688 179.4 107.841 179.4 108C179.4 108.159 179.463 108.312 179.576 108.424C179.688 108.537 179.841 108.6 180 108.6C180.159 108.6 180.312 108.537 180.424 108.424C180.537 108.312 180.6 108.159 180.6 108C180.6 107.841 180.537 107.688 180.424 107.576C180.312 107.463 180.159 107.4 180 107.4Z" fill="#283462"/>
<path d="M155.4 126V127.242C154.344 127.376 153.362 127.857 152.61 128.61C151.857 129.362 151.376 130.344 151.242 131.4H150V132.6H151.242C151.376 133.656 151.857 134.638 152.61 135.39C153.362 136.143 154.344 136.624 155.4 136.758V138H156.6V136.758C157.656 136.624 158.638 136.143 159.39 135.39C160.143 134.638 160.624 133.656 160.758 132.6H162V131.4H160.758C160.624 130.344 160.143 129.362 159.39 128.61C158.638 127.857 157.656 127.376 156.6 127.242V126M155.4 128.448V129.6H156.6V128.454C158.1 128.7 159.3 129.9 159.552 131.4H158.4V132.6H159.546C159.3 134.1 158.1 135.3 156.6 135.552V134.4H155.4V135.546C153.9 135.3 152.7 134.1 152.448 132.6H153.6V131.4H152.454C152.7 129.9 153.9 128.7 155.4 128.448ZM156 131.4C155.841 131.4 155.688 131.463 155.576 131.576C155.463 131.688 155.4 131.841 155.4 132C155.4 132.159 155.463 132.312 155.576 132.424C155.688 132.537 155.841 132.6 156 132.6C156.159 132.6 156.312 132.537 156.424 132.424C156.537 132.312 156.6 132.159 156.6 132C156.6 131.841 156.537 131.688 156.424 131.576C156.312 131.463 156.159 131.4 156 131.4Z" fill="#283462"/>
<path d="M179.4 126V127.242C178.344 127.376 177.362 127.857 176.61 128.61C175.857 129.362 175.376 130.344 175.242 131.4H174V132.6H175.242C175.376 133.656 175.857 134.638 176.61 135.39C177.362 136.143 178.344 136.624 179.4 136.758V138H180.6V136.758C181.656 136.624 182.638 136.143 183.39 135.39C184.143 134.638 184.624 133.656 184.758 132.6H186V131.4H184.758C184.624 130.344 184.143 129.362 183.39 128.61C182.638 127.857 181.656 127.376 180.6 127.242V126M179.4 128.448V129.6H180.6V128.454C182.1 128.7 183.3 129.9 183.552 131.4H182.4V132.6H183.546C183.3 134.1 182.1 135.3 180.6 135.552V134.4H179.4V135.546C177.9 135.3 176.7 134.1 176.448 132.6H177.6V131.4H176.454C176.7 129.9 177.9 128.7 179.4 128.448ZM180 131.4C179.841 131.4 179.688 131.463 179.576 131.576C179.463 131.688 179.4 131.841 179.4 132C179.4 132.159 179.463 132.312 179.576 132.424C179.688 132.537 179.841 132.6 180 132.6C180.159 132.6 180.312 132.537 180.424 132.424C180.537 132.312 180.6 132.159 180.6 132C180.6 131.841 180.537 131.688 180.424 131.576C180.312 131.463 180.159 131.4 180 131.4Z" fill="#283462"/>
<path d="M155.4 150V151.242C154.344 151.376 153.362 151.857 152.61 152.61C151.857 153.362 151.376 154.344 151.242 155.4H150V156.6H151.242C151.376 157.656 151.857 158.638 152.61 159.39C153.362 160.143 154.344 160.624 155.4 160.758V162H156.6V160.758C157.656 160.624 158.638 160.143 159.39 159.39C160.143 158.638 160.624 157.656 160.758 156.6H162V155.4H160.758C160.624 154.344 160.143 153.362 159.39 152.61C158.638 151.857 157.656 151.376 156.6 151.242V150M155.4 152.448V153.6H156.6V152.454C158.1 152.7 159.3 153.9 159.552 155.4H158.4V156.6H159.546C159.3 158.1 158.1 159.3 156.6 159.552V158.4H155.4V159.546C153.9 159.3 152.7 158.1 152.448 156.6H153.6V155.4H152.454C152.7 153.9 153.9 152.7 155.4 152.448ZM156 155.4C155.841 155.4 155.688 155.463 155.576 155.576C155.463 155.688 155.4 155.841 155.4 156C155.4 156.159 155.463 156.312 155.576 156.424C155.688 156.537 155.841 156.6 156 156.6C156.159 156.6 156.312 156.537 156.424 156.424C156.537 156.312 156.6 156.159 156.6 156C156.6 155.841 156.537 155.688 156.424 155.576C156.312 155.463 156.159 155.4 156 155.4Z" fill="#283462"/>
<path d="M179.4 150V151.242C178.344 151.376 177.362 151.857 176.61 152.61C175.857 153.362 175.376 154.344 175.242 155.4H174V156.6H175.242C175.376 157.656 175.857 158.638 176.61 159.39C177.362 160.143 178.344 160.624 179.4 160.758V162H180.6V160.758C181.656 160.624 182.638 160.143 183.39 159.39C184.143 158.638 184.624 157.656 184.758 156.6H186V155.4H184.758C184.624 154.344 184.143 153.362 183.39 152.61C182.638 151.857 181.656 151.376 180.6 151.242V150M179.4 152.448V153.6H180.6V152.454C182.1 152.7 183.3 153.9 183.552 155.4H182.4V156.6H183.546C183.3 158.1 182.1 159.3 180.6 159.552V158.4H179.4V159.546C177.9 159.3 176.7 158.1 176.448 156.6H177.6V155.4H176.454C176.7 153.9 177.9 152.7 179.4 152.448ZM180 155.4C179.841 155.4 179.688 155.463 179.576 155.576C179.463 155.688 179.4 155.841 179.4 156C179.4 156.159 179.463 156.312 179.576 156.424C179.688 156.537 179.841 156.6 180 156.6C180.159 156.6 180.312 156.537 180.424 156.424C180.537 156.312 180.6 156.159 180.6 156C180.6 155.841 180.537 155.688 180.424 155.576C180.312 155.463 180.159 155.4 180 155.4Z" fill="#283462"/>
<path d="M155.4 174V175.242C154.344 175.376 153.362 175.857 152.61 176.61C151.857 177.362 151.376 178.344 151.242 179.4H150V180.6H151.242C151.376 181.656 151.857 182.638 152.61 183.39C153.362 184.143 154.344 184.624 155.4 184.758V186H156.6V184.758C157.656 184.624 158.638 184.143 159.39 183.39C160.143 182.638 160.624 181.656 160.758 180.6H162V179.4H160.758C160.624 178.344 160.143 177.362 159.39 176.61C158.638 175.857 157.656 175.376 156.6 175.242V174M155.4 176.448V177.6H156.6V176.454C158.1 176.7 159.3 177.9 159.552 179.4H158.4V180.6H159.546C159.3 182.1 158.1 183.3 156.6 183.552V182.4H155.4V183.546C153.9 183.3 152.7 182.1 152.448 180.6H153.6V179.4H152.454C152.7 177.9 153.9 176.7 155.4 176.448ZM156 179.4C155.841 179.4 155.688 179.463 155.576 179.576C155.463 179.688 155.4 179.841 155.4 180C155.4 180.159 155.463 180.312 155.576 180.424C155.688 180.537 155.841 180.6 156 180.6C156.159 180.6 156.312 180.537 156.424 180.424C156.537 180.312 156.6 180.159 156.6 180C156.6 179.841 156.537 179.688 156.424 179.576C156.312 179.463 156.159 179.4 156 179.4Z" fill="#283462"/>
<path d="M179.4 174V175.242C178.344 175.376 177.362 175.857 176.61 176.61C175.857 177.362 175.376 178.344 175.242 179.4H174V180.6H175.242C175.376 181.656 175.857 182.638 176.61 183.39C177.362 184.143 178.344 184.624 179.4 184.758V186H180.6V184.758C181.656 184.624 182.638 184.143 183.39 183.39C184.143 182.638 184.624 181.656 184.758 180.6H186V179.4H184.758C184.624 178.344 184.143 177.362 183.39 176.61C182.638 175.857 181.656 175.376 180.6 175.242V174M179.4 176.448V177.6H180.6V176.454C182.1 176.7 183.3 177.9 183.552 179.4H182.4V180.6H183.546C183.3 182.1 182.1 183.3 180.6 183.552V182.4H179.4V183.546C177.9 183.3 176.7 182.1 176.448 180.6H177.6V179.4H176.454C176.7 177.9 177.9 176.7 179.4 176.448ZM180 179.4C179.841 179.4 179.688 179.463 179.576 179.576C179.463 179.688 179.4 179.841 179.4 180C179.4 180.159 179.463 180.312 179.576 180.424C179.688 180.537 179.841 180.6 180 180.6C180.159 180.6 180.312 180.537 180.424 180.424C180.537 180.312 180.6 180.159 180.6 180C180.6 179.841 180.537 179.688 180.424 179.576C180.312 179.463 180.159 179.4 180 179.4Z" fill="#283462"/>
</svg>
