<svg width="48" height="47" viewBox="0 0 48 47" fill="none" xmlns="http://www.w3.org/2000/svg">
<rect x="0.878906" width="47" height="47" rx="4" fill="#033C73"/>
<path d="M19.2873 25.7618C17.8061 25.7618 16.5984 24.4159 16.5984 22.7695C16.5984 21.1216 17.7762 19.7757 19.2887 19.7757C20.7842 19.7757 22.0091 21.1216 21.9791 22.7695C21.9791 24.4159 20.7842 25.7618 19.2873 25.7618ZM29.22 25.7604C27.7388 25.7604 26.5282 24.4145 26.5282 22.768C26.5282 21.1202 27.7089 19.7743 29.22 19.7743C30.7154 19.7743 31.9403 21.1202 31.9118 22.768C31.9118 24.4145 30.7311 25.7604 29.22 25.7604ZM21.5732 12.1959L21.1346 11.394L20.2316 11.545C18.1852 11.8862 16.1936 12.4993 14.3096 13.368L13.9849 13.5176L13.7826 13.8167C10.0611 19.3043 9.0399 24.7093 9.54551 30.0174L9.60105 30.5971L10.0711 30.9389C12.2604 32.5453 14.7056 33.7698 17.3034 34.5608L18.4285 34.9054L20.0137 31.0372C22.734 31.7094 25.7534 31.7094 28.4723 31.0372L30.0489 34.9069L31.1741 34.5622C33.7739 33.773 36.2205 32.5473 38.4092 30.9375L38.8749 30.5985L38.9319 30.026C39.5529 23.8733 37.9392 18.5138 34.719 13.8124L34.5167 13.5162L34.192 13.368C32.3085 12.5033 30.3193 11.8903 28.2757 11.545L27.3955 11.3983L26.9483 12.1703C26.823 12.3839 26.6962 12.626 26.5737 12.8724C25.0288 12.7128 23.4714 12.7128 21.9264 12.8724C21.8054 12.6303 21.6843 12.3967 21.5732 12.1959ZM16.7166 29.6984C16.9971 29.8608 17.2934 30.0203 17.5854 30.1656L16.9459 31.7265C15.2162 31.0961 13.5752 30.2449 12.0636 29.1942C11.7431 24.725 12.6518 20.2144 15.7153 15.5642C17.0082 14.9948 18.3559 14.5591 19.7374 14.2639C19.8228 14.4419 19.9026 14.6171 19.9681 14.7709L20.3569 15.6867L21.3425 15.5429C23.2739 15.2599 25.2362 15.2599 27.1677 15.5429L28.1504 15.6853L28.5378 14.7709C28.6047 14.6114 28.6831 14.4376 28.7657 14.2639C30.1571 14.563 31.5045 15.0045 32.7934 15.5671C35.4639 19.5834 36.8112 24.0641 36.4195 29.1928C34.908 30.2458 33.2658 31.0976 31.5344 31.7265L30.9006 30.167C31.194 30.0217 31.4902 29.8622 31.7737 29.6984C32.4715 29.2968 33.2221 28.7954 33.7007 28.3169L31.8776 26.4939C31.6455 26.7274 31.1327 27.092 30.4861 27.4652C29.8538 27.8298 29.2257 28.1246 28.8241 28.2571C25.9713 29.2013 22.5175 29.2013 19.6633 28.2571C19.2631 28.1246 18.635 27.8298 18.0027 27.4652C17.3561 27.0935 16.8433 26.7274 16.6097 26.4939L14.7867 28.3169C15.2667 28.7954 16.0187 29.2968 16.7166 29.6984Z" fill="white"/>
</svg>
