<svg width="48" height="47" viewBox="0 0 48 47" fill="none" xmlns="http://www.w3.org/2000/svg">
<rect x="0.939453" width="47" height="47" rx="4" fill="#033C73"/>
<path d="M12.333 22.788C12.333 17.4172 12.333 14.731 14.0022 13.0633C15.67 11.394 18.3561 11.394 23.7269 11.394H26.5754C31.9463 11.394 34.6324 11.394 36.3002 13.0633C37.9694 14.731 37.9694 17.4172 37.9694 22.788V25.6365C37.9694 31.0073 37.9694 33.6934 36.3002 35.3612C34.6324 37.0304 31.9463 37.0304 26.5754 37.0304H23.7269C18.3561 37.0304 15.67 37.0304 14.0022 35.3612C12.333 33.6934 12.333 31.0073 12.333 25.6365V22.788Z" stroke="white" stroke-width="2"/>
<path d="M31.5602 19.9395C32.7401 19.9395 33.6966 18.983 33.6966 17.8031C33.6966 16.6232 32.7401 15.6667 31.5602 15.6667C30.3803 15.6667 29.4238 16.6232 29.4238 17.8031C29.4238 18.983 30.3803 19.9395 31.5602 19.9395Z" fill="white"/>
<path d="M25.1516 28.4849C27.5114 28.4849 29.4244 26.5719 29.4244 24.2122C29.4244 21.8524 27.5114 19.9395 25.1516 19.9395C22.7919 19.9395 20.8789 21.8524 20.8789 24.2122C20.8789 26.5719 22.7919 28.4849 25.1516 28.4849Z" stroke="white" stroke-width="2"/>
</svg>
