<svg xmlns="http://www.w3.org/2000/svg" width="30" height="30" fill="none" xmlns:v="https://vecta.io/nano"><rect x=".5" y=".5" width="28.952" height="28.952" rx="10.5" fill="#ebffff" stroke="#fff"/><path d="M14.41 4.168c.626.266 1.734-.31 2.346-.01s1.083.628 1.617.988 1.21.468 1.552 1.054.529 1.152.815 1.79.168 1.601.363 2.287c-.593-.101-1.159-.297-1.752-.404.269.297.579.574.898.809-.011.075-.128.008-.135.09.092.004.16.03.225.045l1.977.449v.853l-1.977-.449c-2.086-.381-4.348-.27-6.514-.27l-3.729.18c-.084-.203-.11-.422-.18-.629-.018-.046-.049-.063-.045-.135-.072.119-.174.26-.27.359-.041-.319-.169-.615-.18-.943-.106-.206-.507-.284-.584-.539.286-.23.461-.368.809-.493s.569.268.808.448c-.007-.839-.074-1.998.491-2.609s.684-1.331 1.355-1.745 1.38-.699 1.973-1.127c-.857.183-1.986.122-2.729.595s-1.412.683-2.044 1.28-1.017 1.128-1.526 1.798-1.054 1.392-.978 2.301c-.906.313-.809 1.561-.809 2.381 0 .287-.021.601-.045.854.064 1.119-.045 2.139-.314 3.144 1.096.582 2.03-.575 3.189-.449-.012-.132 0-.271 0-.404-.123-.001-.228.073-.359.045-.044-.339.158-.62.359-.853.009-.071.014-.042.045-.09s.071-.118.135-.135c.442 2.362 1.25 4.661 2.471 6.738.575.231 1.272.823 1.438 1.393.626.034 1.15.353 1.662.674.171.034.437.03.584.045.323 0 .655.045.943-.09l.314-.135c.23-.126.402-.249.674-.314.354-.085.665-.286.985-.453s.094-.209.183-.491c-.084-.191-.585.055-.775.168s-.503.442-.797.326-.772.052-1.078-.045c.04.14-.073.318-.09.449-.536-.275-1.032-.637-1.662-.674.018-.071-.042-.19.045-.225.019-.092.196-.561.135-.629-.009.002-.087.041-.09.045-.068.088-.032.253-.045.359-.471-.372-1.009-.711-1.426-1.179s-.617-1.092-.944-1.661a7.29 7.29 0 0 1-.764-1.886c-.153-.649-.479-1.335-.608-1.997s-.434-1.575.014-2.126c.197-.296.419-.794.764-.899.134-.041.287-.045.449-.045l1.438-.045c.535-.052 1.14-.045 1.707-.045l2.516.045.854.045c.292.043.536.056.853.045s.522.054.539.359-.116.641 0 .898c.189.081.379.324.494.494-.079-.404.059-.85 0-1.258.543.184.278.915.314 1.438s-.004 1.213 0 1.752-.145 1.083-.18 1.617c.167-.137.686.007.774-.304s.288-.412.405-.673.306-.405.427-.651.292-.417.426-.652.256-.432.425-.653.211-.447.406-.672.281-.483.281-.797c-.025-.256-.112-.647 0-.899-.165-.552-1.034-.701-1.213-1.258s-.056-1.457-.363-1.973l-.926-1.5c-.351-.467-.583-1.061-1.043-1.428s-.906-.703-1.437-.988-1.004-.61-1.611-.815-1.612.14-2.256.1z" fill="#020304"/><path d="M14.411 4.168c-.022-.001-.067 0-.09 0 .097.209.704.333.932.55s.718.494 1.044.483c.509-.083 1.169-.073 1.665-.132s.524.75.668 1.123.379.978.452 1.389c.132.734.111 1.497.18 2.246-1.93-.214-3.892-.305-5.885-.27-.903 0-1.831.1-2.74.18a2.59 2.59 0 0 0-.359.314c-.183.204-.266.536-.404.764-.004.072.027.088.045.135.005-.059-.004-.12 0-.18l7.547-.18c.892 0 1.756.144 2.65.18.007-.082.124-.015.135-.09a6.1 6.1 0 0 1-.898-.809l1.752.404c-.194-.686-.076-1.65-.363-2.287s-.474-1.204-.815-1.79-1.017-.694-1.552-1.054-1.005-.688-1.617-.988-1.72.276-2.346.01z" fill="#001921"/><path d="M9.424 10.232c.258.018.595-.389.853-.449.106-.025.254-.035.359-.045l2.74-.18.045-1.932c.048-.469.326-.858.439-1.313s.687-.488 1.091-.661.919-.383 1.345-.452c-.327.011-.817-.265-1.045-.483s-.835-.341-.932-.55c0 0-.028-.01-.045 0-.593.428-1.302.713-1.973 1.127s-.791 1.133-1.355 1.745-.497 1.77-.491 2.609c-.239-.181-.459-.573-.808-.448s-.524.263-.809.493c.077.255.478.333.584.539z" fill="#002734"/><path d="M16.297 5.201c-.425.069-.94.28-1.344.452s-.978.206-1.091.661-.391.843-.439 1.313c.008-.028.079-.079.045-.135.905.06 1.907-.09 2.83-.09s1.962.06 2.785.18c-.074-.411-.309-1.016-.452-1.389s-.171-1.182-.668-1.123l-1.665.132z" fill="#004e67"/><path d="M13.422 7.627c-.066.643-.02 1.282-.045 1.932 1.993-.035 3.955.056 5.885.27l-.18-2.246c-.823-.12-1.862-.18-2.785-.18l-2.83.09c.034.056-.036.107-.045.135z" fill="#006483"/><path d="M10.277 9.783c-.146.076.01.145 0 .269a2.59 2.59 0 0 1 .359-.314l-.359.045z" fill="#005b77"/><path d="M9.424 10.232c.01.328.138.625.18.943a2.21 2.21 0 0 0 .27-.359c.138-.228.221-.559.404-.764.01-.124-.146-.193 0-.269-.258.06-.596.467-.853.449z" fill="#003f53"/><path d="M9.918 10.951c.07.207.096.426.18.629l3.729-.18h-.674c.098-.247.019-.542.045-.809h4.268c-2.502-.15-5.071.007-7.547.18-.004.059.005.12 0 .18z" fill="#00394c"/><path d="M13.826 11.4c2.166 0 4.428-.111 6.514.27-.102-.209.136-.669 0-.854-.064-.015-.133-.041-.225-.045l-2.65-.18h-4.267c-.026.266.053.561-.045.809h.674z" fill="#005a77"/><path d="M20.34 11.67l1.976.449v-.854c-.671-.113-1.317-.295-1.976-.449.136.184-.102.644 0 .854z" fill="#00141a"/><path d="M13.018 11.939h.629l1.078-.045c-.567 0-1.172-.007-1.707.045z" fill="#411401"/><path d="M13.647 11.94c-.139.1-.024.495-.09.674s-.024.504-.045.719l-.087.677-.048.761c.15.014.318-.038.449.045-.037-.2-.068-.466-.045-.629.032-.222.119-.52.225-.719.401-.751 1.561-.915 2.167-.371s.685 1.694.124 2.302c.048-.038.12-.068.135-.135l.764.18.045-3.504c-.818-.072-1.679-.045-2.516-.045-.326.031-.718.045-1.078.045z" fill="#fd7406"/><path d="M11.581 11.984l-.449.045c-.345.105-.566.602-.764.898-.065.469.274.97.26 1.447s.213.936.321 1.386.28.9.408 1.345c-.07-1.101-.787-2.228-.764-3.414l2.74 1.033-.045 5.93c.126.103.265.33.415.393s.282.364.438.371c.003-.004.081-.043.09-.045.594-.129 1.116.368 1.617.539-.133-.132.239-.374.414-.394s.49-.143.674-.225.539-.105.709-.235c.314-.405.358-1.077.538-1.573l.54-1.571c.02-.291.149-.646.26-.908s.088-.675.279-.889c-.45.133-.848.086-1.258-.135-.215-.116-.301-.319-.404-.539a1.84 1.84 0 0 1-.135-.494c-.062-.392-.019-.819.18-1.168.376-.661 1.229-.755 1.842-.494-.116-.257.017-.593 0-.898s-.222-.37-.539-.359-.562-.002-.854-.045-.559-.019-.854-.045l-.045 3.504-.764-.18c-.014.067-.087.097-.135.135-.622.486-1.224.745-1.932.27-.27-.182-.482-.548-.539-.853-.132-.083-.299-.031-.449-.045.002-.239.024-.531.048-.761l.087-.677c.021-.215-.021-.54.045-.719s-.049-.574.09-.674h-.629l-1.437.045z" fill="#fe2e02"/><path d="M11.131 12.029c.133-.022.339-.034.449-.045-.162 0-.315.004-.449.045z" fill="#670a01"/><path d="M23.26 12.928c0-.261.074-.65 0-.898-.112.252-.025.642 0 .898z" fill="#696969"/><path d="M6.145 13.377l.045-.854-.045.854z" fill="#939393"/><path d="M19.981 13.781c.419.617.05 1.182-.045 1.797-.115.739-.07 1.703-.18 2.471a17.01 17.01 0 0 1-.464 2.276c-.207.716-.77 1.204-1.423 1.273-.437.046-.707.417-1.168.404-.045-.001-.09 0-.135 0-.172 0-.354-.025-.494-.045a.69.69 0 0 1-.225-.045c-.501-.171-1.023-.668-1.617-.539.061.068-.115.537-.135.629-.015.033.233-.323.45-.226s.482.145.683.26.379.353.574.415c.306.097.783-.072 1.078.045s.608-.212.797-.326.691-.359.775-.168c.105-.334.54-.528.775-.842s.385-.704.441-1.131.196-.858.276-1.296.085-.957.17-1.402c.034-.535.183-1.078.18-1.617v-1.752c-.037-.522.228-1.253-.314-1.437.059.407-.08.854 0 1.258z" fill="#013a4c"/><path d="M14.006 13.467c.004-.015.004.603-.18.764.14.535.097 1.021.539 1.438.708.476 1.31.217 1.932-.269.562-.608.482-1.757-.124-2.302s-1.766-.38-2.167.371zm1.123 2.022c-.423-.358-.324-1.209.225-1.437.581-.242 1.116.397.988.943s-.792.85-1.213.494z" fill="#fcfcfb"/><path d="M14.141 21.418c-.156-.007-.287-.307-.438-.371s-.29-.29-.415-.393c-.53-.435-.85-.988-1.12-1.621s-.767-1.22-.812-1.928l-.407-1.344c-.109-.45-.336-.908-.321-1.386s-.324-.979-.26-1.447c-.449.55-.144 1.464-.014 2.126s.455 1.349.608 1.997.437 1.317.764 1.886.527 1.194.944 1.661.955.808 1.426 1.179c.013-.107-.023-.271.045-.359z" fill="#034c64"/><path d="M17.645 13.781c.003-.013.055.227-.035.325s-.121.291-.135.404a4.24 4.24 0 0 0-.01.439c.028.176.064.344.135.494.092.148.253.43.404.539.41.221.808.268 1.258.135.199-.059.558-.356.674-.539.095-.614.464-1.18.045-1.797-.115-.17-.305-.413-.494-.494-.613-.261-1.466-.167-1.842.494zm.494 2.021c-.502-.314-.378-1.247.18-1.437.564-.193 1.043.37.943.899s-.692.808-1.123.539z" fill="#fbfbfa"/><path d="M14.006 13.467c-.106.199-.192.496-.225.719.002.016.042.034.045.045.183-.161.183-.778.18-.764z" fill="#c5f7fb"/><path d="M11.356 17.106c.045.708.543 1.296.812 1.928s.589 1.186 1.119 1.621l.045-5.93-2.74-1.033c-.023 1.186.694 2.313.764 3.414z" fill="#ee0201"/><path d="M17.465 14.949l.01-.439c.014-.113.046-.306.135-.404s.038-.338.035-.325c-.198.349-.242.776-.18 1.168z" fill="#bff3f9"/><path d="M15.353 14.051c-.476.254-.532 1.099-.225 1.438.42.356 1.085.052 1.213-.494s-.408-1.185-.988-.943z" fill="#3f4002"/><path d="M15.129 15.488c-.308-.338-.251-1.184.225-1.437-.549.229-.647 1.079-.225 1.438z" fill="#0b0b09"/><path d="M13.826 14.815c.057.305.269.672.539.853-.442-.417-.399-.902-.539-1.437-.003-.011-.043-.029-.045-.045-.023.163.008.43.045.629z" fill="#94d2ec"/><path d="M18.317 14.365c-.484.253-.578 1.104-.18 1.438.431.269 1.023-.01 1.123-.539s-.379-1.092-.943-.898z" fill="#3c3d01"/><path d="M18.139 15.803c-.398-.334-.305-1.185.18-1.437-.558.191-.681 1.124-.18 1.438z" fill="#0e0e0d"/><path d="M9.065 14.77c.099.109-.034.463 0 .629s0 .493 0 .674c0 1.124.632 2.139.719 3.234.037.194.018.398 0 .584l-.135 3.414c-.032.469.151.892.18 1.348l1.168-3.504c.246.005.434.193.674.225-1.221-2.078-2.029-4.377-2.471-6.738-.064.017-.101.083-.135.135z" fill="#cf0302"/><path d="M9.019 14.859c-.032.26 0 .546 0 .809v.404h.045c0-.181.034-.508 0-.674s.099-.52 0-.629c-.031.048-.036.019-.045.09z" fill="#330c10"/><path d="M9.019 15.668c0-.263-.032-.548 0-.809-.201.233-.403.514-.359.853.131.028.236-.046.359-.045z" fill="#001921"/><path d="M18.004 15.982c-.151-.109-.313-.391-.404-.539.103.22.189.423.404.539z" fill="#9be0f1"/><path d="M19.262 16.117c-.192.214-.17.626-.279.889s-.24.618-.26.908c-.041.598-.061 1.445-.266 1.98s.005 1.427-.587 1.704c.653-.069 1.216-.556 1.423-1.273a17.01 17.01 0 0 0 .464-2.276c.11-.768.065-1.731.18-2.471-.116.183-.475.48-.674.539z" fill="#020304"/><path d="M9.783 19.891c.018-.186.037-.39 0-.584.015.192 0 .391 0 .584z" fill="#fda9a7"/><path d="M15.848 21.912a.69.69 0 0 0 .225.045c.175.007.349.013.494.045h.135c.16-.071.311-.374.483-.46s.347-.336.46-.483c-.17.129-.525.153-.709.235s-.499.205-.674.225-.547.262-.414.394z" fill="#da0705"/><path d="M9.648 23.305c-.172.283-.653.373-.887.64s-.561.388-.854.628-.878.153-1.268.214-.981.007-1.362.12l-1.108.375c-.372.107-.578.39-.765.718h9.434c.142-.258.162-.664.374-.884s.691-.142.959-.299.696-.137.961-.296.763-.066.985-.273c.025-.188.08-.701.18-.854-.288.135-.62.09-.943.09-.201 0-.415.012-.584-.045-.513-.321-1.036-.64-1.662-.674-.166-.569-.863-1.162-1.437-1.393-.239-.032-.428-.219-.674-.225l-1.168 3.504c-.029-.456-.212-.878-.18-1.348z" fill="#fe2601"/><path d="M14.096 22.002c-.087.035-.027.154-.045.225.63.036 1.126.398 1.662.674.017-.132.13-.309.09-.449-.195-.061-.372-.3-.574-.415s-.466-.163-.683-.26-.465.259-.45.226z" fill="#00171f"/><path d="M16.566 22.002c-.145-.032-.319-.038-.494-.045.14.02.322.045.494.045z" fill="#711d29"/><path d="M16.611 23.26c.378-.005.913.292 1.258.404l2.516.764c-.687.557-1.485 1.001-2.156 1.572h2.92c.262-.236.404-.63.685-.842s.441-.759.807-.695.821.282 1.206.366.815.287 1.211.362.655.346.942.63v-.494c-.773-.612-1.796-.965-2.775-1.133s-2.358.568-3.279-.045-1.84-.571-2.661-1.203c-.272.066-.443.189-.674.314z" fill="#fe1507"/><path d="M16.297 23.395c-.099.152-.154.665-.18.854-.055.414.113.884.18 1.258.023-.196.079-.384.09-.584.341-.099.633-.372.954-.529s.586-.485.888-.504c.008-.166-.4-.115-.359-.225-.345-.112-.88-.409-1.258-.404-.093.05-.214.088-.314.135z" fill="#fe5300"/><path d="M15.354 23.484l-.584-.045c.169.057.383.045.584.045z" fill="#660a01"/><path d="M16.117 24.248c-.222.207-.72.114-.985.273s-.694.141-.961.296-.747.079-.959.299-.232.626-.374.884h5.391c.672-.571 1.469-1.016 2.156-1.572l-2.516-.764c-.04.11.367.059.359.225-.302.019-.568.347-.888.504s-.613.43-.954.529c-.01.2-.067.388-.09.584-.067-.374-.235-.844-.18-1.258z" fill="#ff6a00"/><path d="M21.148 26H26v-.18c-.288-.284-.547-.556-.942-.63s-.825-.279-1.211-.362-.84-.302-1.206-.366-.525.483-.807.695-.424.606-.685.842z" fill="#ff4600"/></svg>